<svg width="860" height="480" viewBox="0 0 860 480" fill="none" xmlns="http://www.w3.org/2000/svg">
<rect width="860" height="480" fill="white"/>
<path d="M337.12 217.152C344.48 217.152 348.704 221.472 348.704 228.16C348.704 234.752 344.48 240 337.376 240H330.496V217.152H337.12ZM332.832 238.016H337.472C342.208 238.016 346.336 234.656 346.336 228.16C346.336 221.888 342.208 219.136 337.28 219.136H332.832V238.016ZM366.29 235.104C365.33 238.336 362.706 240.288 358.994 240.288C354.034 240.288 351.026 236.576 351.026 231.712C351.026 226.944 354.13 223.168 358.898 223.168C364.306 223.168 366.258 227.296 366.418 231.616C366.45 231.84 366.45 232.128 366.45 232.384H353.17C353.394 236.032 355.666 238.432 358.962 238.432C361.394 238.432 363.346 237.248 364.05 235.104H366.29ZM353.202 230.592H364.21C363.89 227.168 362.226 224.992 358.898 224.992C355.666 224.992 353.522 227.328 353.202 230.592ZM372.008 217.152V240H369.768V217.152H372.008ZM376.206 223.456H378.446V240H376.206V223.456ZM376.206 220.256V217.152H378.382V220.256H376.206ZM397.235 239.04C397.235 243.456 394.259 246.368 389.811 246.368C385.651 246.368 382.835 244.256 382.419 240.8H384.691C385.075 243.328 386.835 244.48 389.811 244.48C392.979 244.48 394.995 242.624 394.995 238.912V236.64H394.963C394.099 238.752 392.371 240.288 389.203 240.288C384.307 240.288 381.619 236.448 381.619 231.712C381.619 227.008 384.307 223.168 389.203 223.168C392.403 223.168 394.163 224.928 394.963 226.656H394.995V223.456H397.235V239.04ZM383.859 231.712C383.859 235.328 385.715 238.368 389.459 238.368C393.715 238.368 395.091 234.624 395.091 231.712C395.091 228.48 393.171 225.056 389.459 225.056C385.779 225.056 383.859 228.096 383.859 231.712ZM401.424 217.152H403.665V226.592C404.529 224.704 406.033 223.168 408.785 223.168C412.593 223.168 414.769 225.408 414.769 229.472V240H412.529V229.632C412.529 226.24 410.929 225.056 408.561 225.056C406.065 225.056 403.665 226.816 403.665 231.584V240H401.424V217.152ZM421.679 236.064C421.679 237.408 422.383 238.176 423.663 238.176H424.879V240H423.567C420.687 240 419.471 238.432 419.471 236.096V225.28H417.007V223.456H419.471V219.488L421.679 218.496V223.456H424.847V225.28H421.679V236.064ZM442.227 235.104C441.267 238.336 438.643 240.288 434.931 240.288C429.971 240.288 426.963 236.576 426.963 231.712C426.963 226.944 430.067 223.168 434.835 223.168C440.243 223.168 442.195 227.296 442.355 231.616C442.387 231.84 442.387 232.128 442.387 232.384H429.107C429.331 236.032 431.603 238.432 434.899 238.432C437.331 238.432 439.283 237.248 439.987 235.104H442.227ZM429.139 230.592H440.147C439.827 227.168 438.163 224.992 434.835 224.992C431.603 224.992 429.459 227.328 429.139 230.592ZM452.264 223.168C455.368 223.168 457.32 225.024 458.12 226.848H458.152V217.152H460.392V240H458.152V236.608H458.12C457.288 238.528 455.336 240.288 452.264 240.288C447.432 240.288 444.776 236.544 444.776 231.712C444.776 226.88 447.432 223.168 452.264 223.168ZM447.016 231.712C447.016 235.52 448.936 238.368 452.616 238.368C456.584 238.368 458.248 235.008 458.248 231.712C458.248 228.096 456.36 225.056 452.616 225.056C449 225.056 447.016 227.904 447.016 231.712ZM473.531 233.056C473.755 236.672 476.475 238.432 479.707 238.432C482.555 238.432 485.147 237.248 485.147 234.112C485.147 231.104 482.811 230.4 479.707 229.504C475.259 228.16 472.059 226.976 472.027 222.976C471.963 218.848 475.419 216.736 479.387 216.736C483.611 216.736 486.715 218.848 487.131 223.36H484.763C484.347 220.224 482.427 218.72 479.387 218.72C476.635 218.72 474.363 220.032 474.363 222.816C474.363 225.408 476.379 226.368 480.187 227.456C483.867 228.512 487.515 229.504 487.515 234.048C487.515 238.688 483.643 240.416 479.707 240.416C475.227 240.416 471.355 238.176 471.163 233.056H473.531ZM491.172 223.456H493.411V233.824C493.411 237.216 495.012 238.4 497.38 238.4C499.844 238.4 502.276 236.64 502.276 231.872V223.456H504.516V240H502.276V236.8C501.412 238.72 499.876 240.288 497.156 240.288C493.316 240.288 491.172 238.048 491.172 233.984V223.456ZM510.946 226.72C511.778 224.512 513.378 223.36 516.066 223.36V225.44C515.49 225.44 514.786 225.568 514.21 225.824C512.386 226.432 510.946 227.84 510.946 231.776V240H508.706V223.456H510.946V226.72ZM520.126 223.456C521.886 228.16 523.582 232.864 525.31 237.568H525.342L530.494 223.456H532.894C530.75 228.96 528.638 234.496 526.526 240H524.094L517.758 223.456H520.126ZM549.165 235.104C548.205 238.336 545.581 240.288 541.869 240.288C536.909 240.288 533.901 236.576 533.901 231.712C533.901 226.944 537.005 223.168 541.773 223.168C547.181 223.168 549.133 227.296 549.293 231.616C549.325 231.84 549.325 232.128 549.325 232.384H536.045C536.269 236.032 538.541 238.432 541.837 238.432C544.269 238.432 546.221 237.248 546.925 235.104H549.165ZM536.077 230.592H547.085C546.765 227.168 545.101 224.992 541.773 224.992C538.541 224.992 536.397 227.328 536.077 230.592ZM558.54 237.856C560.236 233.12 561.964 228.192 563.66 223.456H565.996C563.532 230.08 561.036 236.672 558.54 243.264C557.836 245.184 556.812 246.4 554.572 246.4H552.812V244.544H554.348C556.044 244.544 556.364 243.232 556.844 242.016L557.42 240.512L550.508 223.456H552.844L558.508 237.856H558.54ZM577.236 228.416C577.012 225.92 575.124 225.056 573.268 225.056C571.508 225.056 569.716 225.92 569.716 227.68C569.716 229.248 571.092 230.016 572.724 230.432C573.428 230.624 574.228 230.816 574.964 231.04C577.428 231.68 579.7 232.768 579.7 235.424C579.7 238.848 576.212 240.256 573.428 240.256C570.676 240.256 567.412 238.976 566.932 235.072H569.172C569.524 237.28 571.06 238.4 573.492 238.4C575.508 238.4 577.46 237.632 577.46 235.52C577.46 233.952 576.052 233.376 574.356 232.928C573.492 232.672 572.852 232.512 572.052 232.32C569.716 231.712 567.476 230.4 567.476 227.776C567.476 224.768 570.548 223.168 573.332 223.168C576.468 223.168 579.028 224.8 579.476 228.416H577.236Z" fill="#374151"/>
<path fill-rule="evenodd" clip-rule="evenodd" d="M296.336 215.821C295.598 215.083 294.402 215.083 293.664 215.821L282.821 226.664C282.083 227.402 282.083 228.598 282.821 229.336L293.664 240.179C294.402 240.917 295.598 240.917 296.336 240.179L307.179 229.336C307.917 228.598 307.917 227.402 307.179 226.664L296.336 215.821ZM292.06 214.218C293.684 212.594 296.316 212.594 297.94 214.218L308.782 225.06C310.406 226.684 310.406 229.316 308.782 230.94L297.94 241.782C296.316 243.406 293.684 243.406 292.06 241.782L281.218 230.94C279.594 229.316 279.594 226.684 281.218 225.06L292.06 214.218Z" fill="#5276FA"/>
</svg>
