<svg width="1200" height="860" viewBox="0 0 1200 860" fill="none" xmlns="http://www.w3.org/2000/svg">
<g clip-path="url(#clip0_2092_558)">
<rect width="1200" height="860" fill="#F9FAFB"/>
<rect x="263" y="98" width="672" height="56" rx="6" fill="#E5E7EB" fill-opacity="0.5"/>
<path d="M499.569 131L504.357 118.148H506.301L511.107 131H509.541L508.101 127.13H502.575L501.135 131H499.569ZM507.633 125.888L505.365 119.498H505.311L503.043 125.888H507.633ZM516.004 121.514C517.714 121.514 518.866 122.594 519.244 123.584H519.262V118.148H520.702V131H519.262V129.128H519.244C518.848 130.136 517.714 131.18 516.004 131.18C513.34 131.18 511.774 129.128 511.774 126.338C511.774 123.53 513.34 121.514 516.004 121.514ZM513.214 126.338C513.214 128.408 514.258 129.956 516.274 129.956C518.38 129.956 519.334 128.174 519.334 126.338C519.334 124.412 518.326 122.72 516.274 122.72C514.294 122.72 513.214 124.25 513.214 126.338ZM526.691 121.514C528.401 121.514 529.553 122.594 529.931 123.584H529.949V118.148H531.389V131H529.949V129.128H529.931C529.535 130.136 528.401 131.18 526.691 131.18C524.027 131.18 522.461 129.128 522.461 126.338C522.461 123.53 524.027 121.514 526.691 121.514ZM523.901 126.338C523.901 128.408 524.945 129.956 526.961 129.956C529.067 129.956 530.021 128.174 530.021 126.338C530.021 124.412 529.013 122.72 526.961 122.72C524.981 122.72 523.901 124.25 523.901 126.338ZM537.75 124.484C537.967 123.134 539.101 121.496 541.459 121.496C544.681 121.496 545.131 123.512 545.131 124.952V129.092C545.131 129.794 545.203 130.514 545.275 131H543.745C543.709 130.532 543.709 130.136 543.709 129.614V129.218H543.691C543.421 129.974 542.629 131.198 540.541 131.198C538.309 131.198 537.265 129.812 537.265 128.462C537.265 126.05 540.199 125.816 541.783 125.546C543.133 125.312 543.709 124.988 543.709 124.196C543.709 123.26 542.863 122.702 541.495 122.702C540.307 122.702 539.425 123.386 539.191 124.484H537.75ZM538.687 128.462C538.687 129.398 539.515 130.028 540.775 130.028C542.305 130.028 543.727 129.002 543.727 126.68V125.348C543.511 125.96 542.935 126.464 541.009 126.77C539.569 127.022 538.687 127.49 538.687 128.462ZM550.435 121.694H551.929L553.513 127.58L553.927 129.308H553.945L554.359 127.598L555.943 121.694H557.797L559.363 127.562C559.507 128.138 559.651 128.75 559.813 129.326H559.831L560.263 127.562L561.829 121.694H563.323L560.623 131H558.985L557.293 124.808L556.879 123.206H556.861L556.447 124.808L554.755 131H553.117L550.435 121.694ZM572.744 128.228C572.204 130.136 570.692 131.18 568.622 131.18C565.832 131.18 564.086 129.146 564.086 126.32C564.086 123.566 565.904 121.514 568.568 121.514C571.736 121.514 572.78 123.98 572.852 126.392L572.87 126.752H565.472C565.598 128.768 566.822 129.992 568.586 129.992C569.9 129.992 570.962 129.416 571.322 128.228H572.744ZM571.412 125.6C571.25 123.818 570.332 122.684 568.568 122.684C566.822 122.684 565.688 123.872 565.49 125.6H571.412ZM576.122 118.148V131H574.682V118.148H576.122ZM586.651 128.21C586.147 130.082 584.779 131.18 582.583 131.18C579.703 131.18 577.885 129.092 577.885 126.356C577.885 123.62 579.703 121.514 582.583 121.514C584.869 121.514 586.183 122.756 586.597 124.412H585.139C584.779 123.494 584.041 122.684 582.547 122.684C580.585 122.684 579.325 124.286 579.325 126.356C579.325 128.408 580.585 129.992 582.547 129.992C583.915 129.992 584.779 129.362 585.193 128.21H586.651ZM592.583 131.18C589.757 131.18 587.975 129.038 587.975 126.356C587.975 123.674 589.757 121.514 592.583 121.514C595.427 121.514 597.209 123.674 597.209 126.356C597.209 129.038 595.427 131.18 592.583 131.18ZM589.415 126.356C589.415 128.354 590.693 129.974 592.583 129.974C594.491 129.974 595.769 128.354 595.769 126.356C595.769 124.34 594.491 122.72 592.583 122.72C590.693 122.72 589.415 124.34 589.415 126.356ZM598.975 121.694H600.415V123.314C600.649 122.432 601.585 121.496 602.827 121.496C604.303 121.496 605.185 122.072 605.635 123.35C606.247 122.072 607.093 121.496 608.335 121.496C610.459 121.496 611.449 122.936 611.449 125.024V131H610.009V125.15C610.009 123.386 609.289 122.702 608.173 122.702C606.931 122.702 605.923 123.854 605.923 126.266V131H604.483V125.15C604.483 123.386 603.925 122.702 602.665 122.702C600.991 122.702 600.415 124.394 600.415 126.356V131H598.975V121.694ZM621.805 128.228C621.265 130.136 619.753 131.18 617.683 131.18C614.893 131.18 613.147 129.146 613.147 126.32C613.147 123.566 614.965 121.514 617.629 121.514C620.797 121.514 621.841 123.98 621.913 126.392L621.931 126.752H614.533C614.659 128.768 615.883 129.992 617.647 129.992C618.961 129.992 620.023 129.416 620.383 128.228H621.805ZM620.473 125.6C620.311 123.818 619.393 122.684 617.629 122.684C615.883 122.684 614.749 123.872 614.551 125.6H620.473ZM627.75 121.694H629.19V123.314C629.424 122.432 630.36 121.496 631.602 121.496C633.078 121.496 633.96 122.072 634.41 123.35C635.022 122.072 635.868 121.496 637.11 121.496C639.234 121.496 640.224 122.936 640.224 125.024V131H638.784V125.15C638.784 123.386 638.064 122.702 636.948 122.702C635.706 122.702 634.698 123.854 634.698 126.266V131H633.258V125.15C633.258 123.386 632.7 122.702 631.44 122.702C629.766 122.702 629.19 124.394 629.19 126.356V131H627.75V121.694ZM650.58 128.228C650.04 130.136 648.528 131.18 646.458 131.18C643.668 131.18 641.922 129.146 641.922 126.32C641.922 123.566 643.74 121.514 646.404 121.514C649.572 121.514 650.616 123.98 650.688 126.392L650.706 126.752H643.308C643.434 128.768 644.658 129.992 646.422 129.992C647.736 129.992 648.798 129.416 649.158 128.228H650.58ZM649.248 125.6C649.086 123.818 648.168 122.684 646.404 122.684C644.658 122.684 643.524 123.872 643.326 125.6H649.248ZM657.702 124.484C657.576 123.188 656.55 122.72 655.542 122.72C654.606 122.72 653.67 123.206 653.67 124.106C653.67 124.916 654.408 125.33 655.29 125.546L656.532 125.87C657.918 126.212 659.268 126.86 659.268 128.372C659.268 130.334 657.252 131.18 655.65 131.18C654.102 131.18 652.158 130.46 651.942 128.21H653.382C653.58 129.434 654.39 129.974 655.704 129.974C656.73 129.974 657.828 129.596 657.828 128.462C657.828 127.616 657.054 127.328 656.118 127.094L654.822 126.752C653.472 126.428 652.23 125.618 652.23 124.16C652.23 122.45 653.994 121.514 655.596 121.514C657.378 121.514 658.908 122.45 659.124 124.484H657.702ZM666.209 124.484C666.083 123.188 665.057 122.72 664.049 122.72C663.113 122.72 662.177 123.206 662.177 124.106C662.177 124.916 662.915 125.33 663.797 125.546L665.039 125.87C666.425 126.212 667.775 126.86 667.775 128.372C667.775 130.334 665.759 131.18 664.157 131.18C662.609 131.18 660.665 130.46 660.449 128.21H661.889C662.087 129.434 662.897 129.974 664.211 129.974C665.237 129.974 666.335 129.596 666.335 128.462C666.335 127.616 665.561 127.328 664.625 127.094L663.329 126.752C661.979 126.428 660.737 125.618 660.737 124.16C660.737 122.45 662.501 121.514 664.103 121.514C665.885 121.514 667.415 122.45 667.631 124.484H666.209ZM669.551 124.484C669.767 123.134 670.901 121.496 673.259 121.496C676.481 121.496 676.931 123.512 676.931 124.952V129.092C676.931 129.794 677.003 130.514 677.075 131H675.545C675.509 130.532 675.509 130.136 675.509 129.614V129.218H675.491C675.221 129.974 674.429 131.198 672.341 131.198C670.109 131.198 669.065 129.812 669.065 128.462C669.065 126.05 671.999 125.816 673.583 125.546C674.933 125.312 675.509 124.988 675.509 124.196C675.509 123.26 674.663 122.702 673.295 122.702C672.107 122.702 671.225 123.386 670.991 124.484H669.551ZM670.487 128.462C670.487 129.398 671.315 130.028 672.575 130.028C674.105 130.028 675.527 129.002 675.527 126.68V125.348C675.311 125.96 674.735 126.464 672.809 126.77C671.369 127.022 670.487 127.49 670.487 128.462ZM687.588 130.37C687.588 132.998 685.752 134.582 683.34 134.582C681.036 134.582 679.344 133.412 679.11 131.432H680.568C680.766 132.8 681.774 133.358 683.34 133.358C684.978 133.358 686.148 132.44 686.148 130.334V129.128H686.13C685.698 130.298 684.762 131.18 682.944 131.18C680.244 131.18 678.66 129.056 678.66 126.338C678.66 123.62 680.244 121.514 682.944 121.514C684.762 121.514 685.752 122.504 686.13 123.458H686.148V121.694H687.588V130.37ZM680.1 126.338C680.1 128.264 681.072 129.956 683.16 129.956C685.482 129.956 686.22 127.886 686.22 126.338C686.22 124.7 685.194 122.72 683.16 122.72C681.126 122.72 680.1 124.412 680.1 126.338ZM698.006 128.228C697.466 130.136 695.954 131.18 693.884 131.18C691.094 131.18 689.348 129.146 689.348 126.32C689.348 123.566 691.166 121.514 693.83 121.514C696.998 121.514 698.042 123.98 698.114 126.392L698.132 126.752H690.734C690.86 128.768 692.084 129.992 693.848 129.992C695.162 129.992 696.224 129.416 696.584 128.228H698.006ZM696.674 125.6C696.512 123.818 695.594 122.684 693.83 122.684C692.084 122.684 690.95 123.872 690.752 125.6H696.674Z" fill="#626975"/>
<rect x="263" y="756" width="672" height="56" rx="6" fill="#E5E7EB" fill-opacity="0.5"/>
<path d="M497.301 789L502.089 776.148H504.033L508.839 789H507.273L505.833 785.13H500.307L498.867 789H497.301ZM505.365 783.888L503.097 777.498H503.043L500.775 783.888H505.365ZM513.736 779.514C515.446 779.514 516.598 780.594 516.976 781.584H516.994V776.148H518.434V789H516.994V787.128H516.976C516.58 788.136 515.446 789.18 513.736 789.18C511.072 789.18 509.506 787.128 509.506 784.338C509.506 781.53 511.072 779.514 513.736 779.514ZM510.946 784.338C510.946 786.408 511.99 787.956 514.006 787.956C516.112 787.956 517.066 786.174 517.066 784.338C517.066 782.412 516.058 780.72 514.006 780.72C512.026 780.72 510.946 782.25 510.946 784.338ZM524.424 779.514C526.134 779.514 527.286 780.594 527.664 781.584H527.682V776.148H529.122V789H527.682V787.128H527.664C527.268 788.136 526.134 789.18 524.424 789.18C521.76 789.18 520.194 787.128 520.194 784.338C520.194 781.53 521.76 779.514 524.424 779.514ZM521.634 784.338C521.634 786.408 522.678 787.956 524.694 787.956C526.8 787.956 527.754 786.174 527.754 784.338C527.754 782.412 526.746 780.72 524.694 780.72C522.714 780.72 521.634 782.25 521.634 784.338ZM535.483 782.484C535.699 781.134 536.833 779.496 539.191 779.496C542.413 779.496 542.863 781.512 542.863 782.952V787.092C542.863 787.794 542.935 788.514 543.007 789H541.477C541.441 788.532 541.441 788.136 541.441 787.614V787.218H541.423C541.153 787.974 540.361 789.198 538.273 789.198C536.041 789.198 534.997 787.812 534.997 786.462C534.997 784.05 537.931 783.816 539.515 783.546C540.865 783.312 541.441 782.988 541.441 782.196C541.441 781.26 540.595 780.702 539.227 780.702C538.039 780.702 537.157 781.386 536.923 782.484H535.483ZM536.419 786.462C536.419 787.398 537.247 788.028 538.507 788.028C540.037 788.028 541.459 787.002 541.459 784.68V783.348C541.243 783.96 540.667 784.464 538.741 784.77C537.301 785.022 536.419 785.49 536.419 786.462ZM550.958 786.588C550.958 787.38 551.39 787.812 552.11 787.812H552.776V789H552.002C550.292 789 549.554 788.028 549.554 786.66V780.882H548.15V779.694H549.554V777.498L550.958 776.85V779.694H552.74V780.882H550.958V786.588ZM554.274 776.148H555.714V781.44C556.2 780.396 557.064 779.514 558.54 779.514C560.844 779.514 561.906 780.936 561.906 783.024V789H560.466V783.15C560.466 781.386 559.674 780.72 558.378 780.72C556.992 780.72 555.714 781.8 555.714 784.356V789H554.274V776.148ZM564.188 782.484C564.404 781.134 565.538 779.496 567.896 779.496C571.118 779.496 571.568 781.512 571.568 782.952V787.092C571.568 787.794 571.64 788.514 571.712 789H570.182C570.146 788.532 570.146 788.136 570.146 787.614V787.218H570.128C569.858 787.974 569.066 789.198 566.978 789.198C564.746 789.198 563.702 787.812 563.702 786.462C563.702 784.05 566.636 783.816 568.22 783.546C569.57 783.312 570.146 782.988 570.146 782.196C570.146 781.26 569.3 780.702 567.932 780.702C566.744 780.702 565.862 781.386 565.628 782.484H564.188ZM565.124 786.462C565.124 787.398 565.952 788.028 567.212 788.028C568.742 788.028 570.164 787.002 570.164 784.68V783.348C569.948 783.96 569.372 784.464 567.446 784.77C566.006 785.022 565.124 785.49 565.124 786.462ZM573.873 779.694H575.313V781.44C575.799 780.396 576.663 779.514 578.139 779.514C580.443 779.514 581.505 780.936 581.505 783.024V789H580.065V783.15C580.065 781.386 579.273 780.72 577.977 780.72C576.591 780.72 575.313 781.8 575.313 784.356V789H573.873V779.694ZM583.77 789V776.148H585.21V783.888L589.386 779.694H591.15L587.226 783.618L591.294 789H589.494L586.236 784.608L585.21 785.58V789H583.77ZM597.212 779.694L600.272 787.596H600.29L603.044 779.694H604.574L600.38 790.818C599.966 791.916 599.336 792.6 598.076 792.6H596.942V791.394H597.896C598.832 791.394 598.994 790.782 599.246 790.098L599.57 789.27L595.682 779.694H597.212ZM609.722 789.18C606.896 789.18 605.114 787.038 605.114 784.356C605.114 781.674 606.896 779.514 609.722 779.514C612.566 779.514 614.348 781.674 614.348 784.356C614.348 787.038 612.566 789.18 609.722 789.18ZM606.554 784.356C606.554 786.354 607.832 787.974 609.722 787.974C611.63 787.974 612.908 786.354 612.908 784.356C612.908 782.34 611.63 780.72 609.722 780.72C607.832 780.72 606.554 782.34 606.554 784.356ZM616.041 779.694H617.481V785.544C617.481 787.308 618.273 787.974 619.569 787.974C620.955 787.974 622.233 786.894 622.233 784.338V779.694H623.673V789H622.233V787.236C621.747 788.298 620.901 789.18 619.407 789.18C617.103 789.18 616.041 787.758 616.041 785.67V779.694ZM630.018 779.694H631.458V781.314C631.692 780.432 632.628 779.496 633.87 779.496C635.346 779.496 636.228 780.072 636.678 781.35C637.29 780.072 638.136 779.496 639.378 779.496C641.502 779.496 642.492 780.936 642.492 783.024V789H641.052V783.15C641.052 781.386 640.332 780.702 639.216 780.702C637.974 780.702 636.966 781.854 636.966 784.266V789H635.526V783.15C635.526 781.386 634.968 780.702 633.708 780.702C632.034 780.702 631.458 782.394 631.458 784.356V789H630.018V779.694ZM652.848 786.228C652.308 788.136 650.796 789.18 648.726 789.18C645.936 789.18 644.19 787.146 644.19 784.32C644.19 781.566 646.008 779.514 648.672 779.514C651.84 779.514 652.884 781.98 652.956 784.392L652.974 784.752H645.576C645.702 786.768 646.926 787.992 648.69 787.992C650.004 787.992 651.066 787.416 651.426 786.228H652.848ZM651.516 783.6C651.354 781.818 650.436 780.684 648.672 780.684C646.926 780.684 645.792 781.872 645.594 783.6H651.516ZM659.969 782.484C659.843 781.188 658.817 780.72 657.809 780.72C656.873 780.72 655.937 781.206 655.937 782.106C655.937 782.916 656.675 783.33 657.557 783.546L658.799 783.87C660.185 784.212 661.535 784.86 661.535 786.372C661.535 788.334 659.519 789.18 657.917 789.18C656.369 789.18 654.425 788.46 654.209 786.21H655.649C655.847 787.434 656.657 787.974 657.971 787.974C658.997 787.974 660.095 787.596 660.095 786.462C660.095 785.616 659.321 785.328 658.385 785.094L657.089 784.752C655.739 784.428 654.497 783.618 654.497 782.16C654.497 780.45 656.261 779.514 657.863 779.514C659.645 779.514 661.175 780.45 661.391 782.484H659.969ZM668.477 782.484C668.351 781.188 667.325 780.72 666.317 780.72C665.381 780.72 664.445 781.206 664.445 782.106C664.445 782.916 665.183 783.33 666.065 783.546L667.307 783.87C668.693 784.212 670.043 784.86 670.043 786.372C670.043 788.334 668.027 789.18 666.425 789.18C664.877 789.18 662.933 788.46 662.717 786.21H664.157C664.355 787.434 665.165 787.974 666.479 787.974C667.505 787.974 668.603 787.596 668.603 786.462C668.603 785.616 667.829 785.328 666.893 785.094L665.597 784.752C664.247 784.428 663.005 783.618 663.005 782.16C663.005 780.45 664.769 779.514 666.371 779.514C668.153 779.514 669.683 780.45 669.899 782.484H668.477ZM671.819 782.484C672.035 781.134 673.169 779.496 675.527 779.496C678.749 779.496 679.199 781.512 679.199 782.952V787.092C679.199 787.794 679.271 788.514 679.343 789H677.813C677.777 788.532 677.777 788.136 677.777 787.614V787.218H677.759C677.489 787.974 676.697 789.198 674.609 789.198C672.377 789.198 671.333 787.812 671.333 786.462C671.333 784.05 674.267 783.816 675.851 783.546C677.201 783.312 677.777 782.988 677.777 782.196C677.777 781.26 676.931 780.702 675.563 780.702C674.375 780.702 673.493 781.386 673.259 782.484H671.819ZM672.755 786.462C672.755 787.398 673.583 788.028 674.843 788.028C676.373 788.028 677.795 787.002 677.795 784.68V783.348C677.579 783.96 677.003 784.464 675.077 784.77C673.637 785.022 672.755 785.49 672.755 786.462ZM689.856 788.37C689.856 790.998 688.02 792.582 685.608 792.582C683.304 792.582 681.612 791.412 681.378 789.432H682.836C683.034 790.8 684.042 791.358 685.608 791.358C687.246 791.358 688.416 790.44 688.416 788.334V787.128H688.398C687.966 788.298 687.03 789.18 685.212 789.18C682.512 789.18 680.928 787.056 680.928 784.338C680.928 781.62 682.512 779.514 685.212 779.514C687.03 779.514 688.02 780.504 688.398 781.458H688.416V779.694H689.856V788.37ZM682.368 784.338C682.368 786.264 683.34 787.956 685.428 787.956C687.75 787.956 688.488 785.886 688.488 784.338C688.488 782.7 687.462 780.72 685.428 780.72C683.394 780.72 682.368 782.412 682.368 784.338ZM700.273 786.228C699.733 788.136 698.221 789.18 696.151 789.18C693.361 789.18 691.615 787.146 691.615 784.32C691.615 781.566 693.433 779.514 696.097 779.514C699.265 779.514 700.309 781.98 700.381 784.392L700.399 784.752H693.001C693.127 786.768 694.351 787.992 696.115 787.992C697.429 787.992 698.491 787.416 698.851 786.228H700.273ZM698.941 783.6C698.779 781.818 697.861 780.684 696.097 780.684C694.351 780.684 693.217 781.872 693.019 783.6H698.941Z" fill="#626975"/>
<path d="M226.214 199.128L216.223 211.617C215.695 212.276 216.165 213.253 217.009 213.253H236.991C237.835 213.253 238.305 212.276 237.777 211.617L227.787 199.128C227.383 198.624 226.617 198.624 226.214 199.128Z" fill="#E5E7EB"/>
<path d="M226.214 256.872L216.223 244.383C215.695 243.724 216.165 242.747 217.009 242.747H236.991C237.835 242.747 238.305 243.724 237.777 244.383L227.787 256.872C227.383 257.376 226.617 257.376 226.214 256.872Z" fill="#A9ADB3"/>
<g filter="url(#filter0_d_2092_558)">
<rect x="263" y="186" width="672" height="314" rx="6" fill="white"/>
<path d="M426.583 220.148L428.887 229.778L429.265 231.398H429.301L429.679 229.778L431.911 220.148H433.999L436.177 229.76L436.573 231.398H436.591L436.987 229.76L439.363 220.148H440.965L438.445 229.76L437.581 233H435.511L434.791 229.76L432.973 221.678H432.955L431.047 229.778L430.291 233H428.239L427.429 229.778L424.981 220.148H426.583ZM445.876 233.18C443.05 233.18 441.268 231.038 441.268 228.356C441.268 225.674 443.05 223.514 445.876 223.514C448.72 223.514 450.502 225.674 450.502 228.356C450.502 231.038 448.72 233.18 445.876 233.18ZM442.708 228.356C442.708 230.354 443.986 231.974 445.876 231.974C447.784 231.974 449.062 230.354 449.062 228.356C449.062 226.34 447.784 224.72 445.876 224.72C443.986 224.72 442.708 226.34 442.708 228.356ZM452.196 223.694H453.636V229.544C453.636 231.308 454.428 231.974 455.724 231.974C457.11 231.974 458.388 230.894 458.388 228.338V223.694H459.828V233H458.388V231.236C457.902 232.298 457.056 233.18 455.562 233.18C453.258 233.18 452.196 231.758 452.196 229.67V223.694ZM463.604 220.148V233H462.164V220.148H463.604ZM469.597 223.514C471.307 223.514 472.459 224.594 472.837 225.584H472.855V220.148H474.295V233H472.855V231.128H472.837C472.441 232.136 471.307 233.18 469.597 233.18C466.933 233.18 465.367 231.128 465.367 228.338C465.367 225.53 466.933 223.514 469.597 223.514ZM466.807 228.338C466.807 230.408 467.851 231.956 469.867 231.956C471.973 231.956 472.927 230.174 472.927 228.338C472.927 226.412 471.919 224.72 469.867 224.72C467.887 224.72 466.807 226.25 466.807 228.338ZM481.161 223.694L484.221 231.596H484.239L486.993 223.694H488.523L484.329 234.818C483.915 235.916 483.285 236.6 482.025 236.6H480.891V235.394H481.845C482.781 235.394 482.943 234.782 483.195 234.098L483.519 233.27L479.631 223.694H481.161ZM493.671 233.18C490.845 233.18 489.063 231.038 489.063 228.356C489.063 225.674 490.845 223.514 493.671 223.514C496.515 223.514 498.297 225.674 498.297 228.356C498.297 231.038 496.515 233.18 493.671 233.18ZM490.503 228.356C490.503 230.354 491.781 231.974 493.671 231.974C495.579 231.974 496.857 230.354 496.857 228.356C496.857 226.34 495.579 224.72 493.671 224.72C491.781 224.72 490.503 226.34 490.503 228.356ZM499.991 223.694H501.431V229.544C501.431 231.308 502.223 231.974 503.519 231.974C504.905 231.974 506.183 230.894 506.183 228.338V223.694H507.623V233H506.183V231.236C505.697 232.298 504.851 233.18 503.357 233.18C501.053 233.18 499.991 231.758 499.991 229.67V223.694ZM522.157 230.21C521.653 232.082 520.285 233.18 518.089 233.18C515.209 233.18 513.391 231.092 513.391 228.356C513.391 225.62 515.209 223.514 518.089 223.514C520.375 223.514 521.689 224.756 522.103 226.412H520.645C520.285 225.494 519.547 224.684 518.053 224.684C516.091 224.684 514.831 226.286 514.831 228.356C514.831 230.408 516.091 231.992 518.053 231.992C519.421 231.992 520.285 231.362 520.699 230.21H522.157ZM528.089 233.18C525.263 233.18 523.481 231.038 523.481 228.356C523.481 225.674 525.263 223.514 528.089 223.514C530.933 223.514 532.715 225.674 532.715 228.356C532.715 231.038 530.933 233.18 528.089 233.18ZM524.921 228.356C524.921 230.354 526.199 231.974 528.089 231.974C529.997 231.974 531.275 230.354 531.275 228.356C531.275 226.34 529.997 224.72 528.089 224.72C526.199 224.72 524.921 226.34 524.921 228.356ZM534.481 223.694H535.921V225.44C536.407 224.396 537.271 223.514 538.747 223.514C541.051 223.514 542.113 224.936 542.113 227.024V233H540.673V227.15C540.673 225.386 539.881 224.72 538.585 224.72C537.199 224.72 535.921 225.8 535.921 228.356V233H534.481V223.694ZM546.159 230.588C546.159 231.38 546.591 231.812 547.311 231.812H547.977V233H547.203C545.493 233 544.755 232.028 544.755 230.66V224.882H543.351V223.694H544.755V221.498L546.159 220.85V223.694H547.941V224.882H546.159V230.588ZM549.721 221.948V220.148H551.269V221.948H549.721ZM549.703 223.694H551.143V233H549.703V223.694ZM553.588 223.694H555.028V225.44C555.514 224.396 556.378 223.514 557.854 223.514C560.158 223.514 561.22 224.936 561.22 227.024V233H559.78V227.15C559.78 225.386 558.988 224.72 557.692 224.72C556.306 224.72 555.028 225.8 555.028 228.356V233H553.588V223.694ZM563.412 223.694H564.852V229.544C564.852 231.308 565.644 231.974 566.94 231.974C568.326 231.974 569.604 230.894 569.604 228.338V223.694H571.044V233H569.604V231.236C569.118 232.298 568.272 233.18 566.778 233.18C564.474 233.18 563.412 231.758 563.412 229.67V223.694ZM581.463 230.228C580.923 232.136 579.411 233.18 577.341 233.18C574.551 233.18 572.805 231.146 572.805 228.32C572.805 225.566 574.623 223.514 577.287 223.514C580.455 223.514 581.499 225.98 581.571 228.392L581.589 228.752H574.191C574.317 230.768 575.541 231.992 577.305 231.992C578.619 231.992 579.681 231.416 580.041 230.228H581.463ZM580.131 227.6C579.969 225.818 579.051 224.684 577.287 224.684C575.541 224.684 574.407 225.872 574.209 227.6H580.131ZM587.336 223.694H588.776V229.544C588.776 231.308 589.568 231.974 590.864 231.974C592.25 231.974 593.528 230.894 593.528 228.338V223.694H594.968V233H593.528V231.236C593.042 232.298 592.196 233.18 590.702 233.18C588.398 233.18 587.336 231.758 587.336 229.67V223.694ZM602.489 226.484C602.363 225.188 601.337 224.72 600.329 224.72C599.393 224.72 598.457 225.206 598.457 226.106C598.457 226.916 599.195 227.33 600.077 227.546L601.319 227.87C602.705 228.212 604.055 228.86 604.055 230.372C604.055 232.334 602.039 233.18 600.437 233.18C598.889 233.18 596.945 232.46 596.729 230.21H598.169C598.367 231.434 599.177 231.974 600.491 231.974C601.517 231.974 602.615 231.596 602.615 230.462C602.615 229.616 601.841 229.328 600.905 229.094L599.609 228.752C598.259 228.428 597.017 227.618 597.017 226.16C597.017 224.45 598.781 223.514 600.383 223.514C602.165 223.514 603.695 224.45 603.911 226.484H602.489ZM605.831 221.948V220.148H607.379V221.948H605.831ZM605.813 223.694H607.253V233H605.813V223.694ZM609.697 223.694H611.137V225.44C611.623 224.396 612.487 223.514 613.963 223.514C616.267 223.514 617.329 224.936 617.329 227.024V233H615.889V227.15C615.889 225.386 615.097 224.72 613.801 224.72C612.415 224.72 611.137 225.8 611.137 228.356V233H609.697V223.694ZM627.946 232.37C627.946 234.998 626.11 236.582 623.698 236.582C621.394 236.582 619.702 235.412 619.468 233.432H620.926C621.124 234.8 622.132 235.358 623.698 235.358C625.336 235.358 626.506 234.44 626.506 232.334V231.128H626.488C626.056 232.298 625.12 233.18 623.302 233.18C620.602 233.18 619.018 231.056 619.018 228.338C619.018 225.62 620.602 223.514 623.302 223.514C625.12 223.514 626.11 224.504 626.488 225.458H626.506V223.694H627.946V232.37ZM620.458 228.338C620.458 230.264 621.43 231.956 623.518 231.956C625.84 231.956 626.578 229.886 626.578 228.338C626.578 226.7 625.552 224.72 623.518 224.72C621.484 224.72 620.458 226.412 620.458 228.338ZM638.321 233.18C635.495 233.18 633.713 231.038 633.713 228.356C633.713 225.674 635.495 223.514 638.321 223.514C641.165 223.514 642.947 225.674 642.947 228.356C642.947 231.038 641.165 233.18 638.321 233.18ZM635.153 228.356C635.153 230.354 636.431 231.974 638.321 231.974C640.229 231.974 641.507 230.354 641.507 228.356C641.507 226.34 640.229 224.72 638.321 224.72C636.431 224.72 635.153 226.34 635.153 228.356ZM644.641 223.694H646.081V229.544C646.081 231.308 646.873 231.974 648.169 231.974C649.555 231.974 650.833 230.894 650.833 228.338V223.694H652.273V233H650.833V231.236C650.347 232.298 649.501 233.18 648.007 233.18C645.703 233.18 644.641 231.758 644.641 229.67V223.694ZM656.049 225.548C656.517 224.252 657.417 223.658 658.875 223.658V225.008C658.677 225.008 658.335 225.044 658.047 225.134C657.003 225.404 656.049 226.034 656.049 228.5V233H654.609V223.694H656.049V225.548ZM664.541 223.694H665.981V225.44C666.467 224.396 667.331 223.514 668.807 223.514C671.111 223.514 672.173 224.936 672.173 227.024V233H670.733V227.15C670.733 225.386 669.941 224.72 668.645 224.72C667.259 224.72 665.981 225.8 665.981 228.356V233H664.541V223.694ZM682.52 230.228C681.98 232.136 680.468 233.18 678.398 233.18C675.608 233.18 673.862 231.146 673.862 228.32C673.862 225.566 675.68 223.514 678.344 223.514C681.512 223.514 682.556 225.98 682.628 228.392L682.646 228.752H675.248C675.374 230.768 676.598 231.992 678.362 231.992C679.676 231.992 680.738 231.416 681.098 230.228H682.52ZM681.188 227.6C681.026 225.818 680.108 224.684 678.344 224.684C676.598 224.684 675.464 225.872 675.266 227.6H681.188ZM683.449 223.694H684.943L686.527 229.58L686.941 231.308H686.959L687.373 229.598L688.957 223.694H690.811L692.377 229.562C692.521 230.138 692.665 230.75 692.827 231.326H692.845L693.277 229.562L694.843 223.694H696.337L693.637 233H691.999L690.307 226.808L689.893 225.206H689.875L689.461 226.808L687.769 233H686.131L683.449 223.694ZM706.382 223.514C709.064 223.514 710.612 225.53 710.612 228.338C710.612 231.128 709.064 233.18 706.382 233.18C704.672 233.18 703.538 232.136 703.142 231.128H703.124V236.6H701.684V223.694H703.124V225.584H703.142C703.538 224.594 704.672 223.514 706.382 223.514ZM703.07 228.338C703.07 230.174 704.006 231.956 706.13 231.956C708.146 231.956 709.172 230.408 709.172 228.338C709.172 226.25 708.092 224.72 706.13 224.72C704.06 224.72 703.07 226.412 703.07 228.338ZM713.811 225.548C714.279 224.252 715.179 223.658 716.637 223.658V225.008C716.439 225.008 716.097 225.044 715.809 225.134C714.765 225.404 713.811 226.034 713.811 228.5V233H712.371V223.694H713.811V225.548ZM722.134 233.18C719.308 233.18 717.526 231.038 717.526 228.356C717.526 225.674 719.308 223.514 722.134 223.514C724.978 223.514 726.76 225.674 726.76 228.356C726.76 231.038 724.978 233.18 722.134 233.18ZM718.966 228.356C718.966 230.354 720.244 231.974 722.134 231.974C724.042 231.974 725.32 230.354 725.32 228.356C725.32 226.34 724.042 224.72 722.134 224.72C720.244 224.72 718.966 226.34 718.966 228.356ZM732.215 223.514C733.925 223.514 735.077 224.594 735.455 225.584H735.473V220.148H736.913V233H735.473V231.128H735.455C735.059 232.136 733.925 233.18 732.215 233.18C729.551 233.18 727.985 231.128 727.985 228.338C727.985 225.53 729.551 223.514 732.215 223.514ZM729.425 228.338C729.425 230.408 730.469 231.956 732.485 231.956C734.591 231.956 735.545 230.174 735.545 228.338C735.545 226.412 734.537 224.72 732.485 224.72C730.505 224.72 729.425 226.25 729.425 228.338ZM739.176 223.694H740.616V229.544C740.616 231.308 741.408 231.974 742.704 231.974C744.09 231.974 745.368 230.894 745.368 228.338V223.694H746.808V233H745.368V231.236C744.882 232.298 744.036 233.18 742.542 233.18C740.238 233.18 739.176 231.758 739.176 229.67V223.694ZM757.335 230.21C756.831 232.082 755.463 233.18 753.267 233.18C750.387 233.18 748.569 231.092 748.569 228.356C748.569 225.62 750.387 223.514 753.267 223.514C755.553 223.514 756.867 224.756 757.281 226.412H755.823C755.463 225.494 754.725 224.684 753.231 224.684C751.269 224.684 750.009 226.286 750.009 228.356C750.009 230.408 751.269 231.992 753.231 231.992C754.599 231.992 755.463 231.362 755.877 230.21H757.335ZM760.964 230.588C760.964 231.38 761.396 231.812 762.116 231.812H762.782V233H762.008C760.298 233 759.56 232.028 759.56 230.66V224.882H758.156V223.694H759.56V221.498L760.964 220.85V223.694H762.746V224.882H760.964V230.588ZM764.472 223.784C764.472 221.408 766.092 219.842 768.342 219.842C770.592 219.842 772.086 221.318 772.086 223.424C772.086 224.918 771.258 225.728 770.52 226.502C769.782 227.258 768.972 227.978 768.972 229.184V229.652H767.55V229.058C767.55 227.564 768.36 226.736 769.152 225.962C769.908 225.224 770.646 224.558 770.646 223.424C770.646 222.02 769.746 221.066 768.342 221.066C766.938 221.066 765.912 222.11 765.912 223.784V224.054H764.472V223.784ZM767.478 230.876H769.08V233H767.478V230.876Z" fill="#374151"/>
<rect x="287.5" y="266.5" width="621" height="57" rx="3.5" fill="white"/>
<rect x="287.5" y="266.5" width="621" height="57" rx="3.5" stroke="#E4E7EB"/>
<path d="M587.59 288.576L590.662 294.064H590.694L593.734 288.576H595.286L591.334 295.312V300H589.974V295.312L586.022 288.576H587.59ZM601.99 297.536C601.51 299.232 600.166 300.16 598.326 300.16C595.846 300.16 594.294 298.352 594.294 295.84C594.294 293.392 595.91 291.568 598.278 291.568C601.094 291.568 602.022 293.76 602.086 295.904L602.102 296.224H595.526C595.638 298.016 596.726 299.104 598.294 299.104C599.462 299.104 600.406 298.592 600.726 297.536H601.99ZM600.806 295.2C600.662 293.616 599.846 292.608 598.278 292.608C596.726 292.608 595.718 293.664 595.542 295.2H600.806ZM608.32 294.208C608.208 293.056 607.296 292.64 606.4 292.64C605.568 292.64 604.736 293.072 604.736 293.872C604.736 294.592 605.392 294.96 606.176 295.152L607.28 295.44C608.512 295.744 609.712 296.32 609.712 297.664C609.712 299.408 607.92 300.16 606.496 300.16C605.12 300.16 603.392 299.52 603.2 297.52H604.48C604.656 298.608 605.376 299.088 606.544 299.088C607.456 299.088 608.432 298.752 608.432 297.744C608.432 296.992 607.744 296.736 606.912 296.528L605.76 296.224C604.56 295.936 603.456 295.216 603.456 293.92C603.456 292.4 605.024 291.568 606.448 291.568C608.032 291.568 609.392 292.4 609.584 294.208H608.32Z" fill="#374151"/>
<rect x="287.5" y="340.5" width="621" height="57" rx="3.5" fill="white"/>
<rect x="287.5" y="340.5" width="621" height="57" rx="3.5" stroke="#E4E7EB"/>
<path d="M595.319 370.096L596.551 372.096L596.535 369.888V362.576H597.879V374H596.215L591.511 366.56L590.279 364.56L590.295 366.896V374H588.951V362.576H590.583L595.319 370.096ZM603.64 374.16C601.128 374.16 599.544 372.256 599.544 369.872C599.544 367.488 601.128 365.568 603.64 365.568C606.168 365.568 607.752 367.488 607.752 369.872C607.752 372.256 606.168 374.16 603.64 374.16ZM600.824 369.872C600.824 371.648 601.96 373.088 603.64 373.088C605.336 373.088 606.472 371.648 606.472 369.872C606.472 368.08 605.336 366.64 603.64 366.64C601.96 366.64 600.824 368.08 600.824 369.872Z" fill="#374151"/>
<rect x="287.5" y="414.5" width="621" height="57" rx="3.5" fill="white"/>
<rect x="287.5" y="414.5" width="621" height="57" rx="3.5" stroke="#E4E7EB"/>
<path d="M574.912 436.576L577.152 436.592L580.528 446.4H580.544L583.904 436.576H586.144V448H584.8V438.08H584.768L581.312 448H579.76L576.288 438.08H576.256V448H574.912V436.576ZM588.376 442.208C588.568 441.008 589.576 439.552 591.672 439.552C594.536 439.552 594.936 441.344 594.936 442.624V446.304C594.936 446.928 595 447.568 595.064 448H593.704C593.672 447.584 593.672 447.232 593.672 446.768V446.416H593.656C593.416 447.088 592.712 448.176 590.856 448.176C588.872 448.176 587.944 446.944 587.944 445.744C587.944 443.6 590.552 443.392 591.96 443.152C593.16 442.944 593.672 442.656 593.672 441.952C593.672 441.12 592.92 440.624 591.704 440.624C590.648 440.624 589.864 441.232 589.656 442.208H588.376ZM589.208 445.744C589.208 446.576 589.944 447.136 591.064 447.136C592.424 447.136 593.688 446.224 593.688 444.16V442.976C593.496 443.52 592.984 443.968 591.272 444.24C589.992 444.464 589.208 444.88 589.208 445.744ZM597.199 439.728L599.919 446.752H599.935L602.383 439.728H603.743L600.015 449.616C599.647 450.592 599.087 451.2 597.967 451.2H596.959V450.128H597.807C598.639 450.128 598.783 449.584 599.007 448.976L599.295 448.24L595.839 439.728H597.199ZM609.099 439.568C611.483 439.568 612.859 441.36 612.859 443.856C612.859 446.336 611.483 448.16 609.099 448.16C607.579 448.16 606.571 447.232 606.219 446.336H606.203V448H604.923V436.576H606.203V441.408H606.219C606.571 440.528 607.579 439.568 609.099 439.568ZM606.155 443.856C606.155 445.488 606.987 447.072 608.875 447.072C610.667 447.072 611.579 445.696 611.579 443.856C611.579 442 610.619 440.64 608.875 440.64C607.035 440.64 606.155 442.144 606.155 443.856ZM621.638 445.536C621.158 447.232 619.814 448.16 617.974 448.16C615.494 448.16 613.942 446.352 613.942 443.84C613.942 441.392 615.558 439.568 617.926 439.568C620.742 439.568 621.67 441.76 621.734 443.904L621.75 444.224H615.174C615.286 446.016 616.374 447.104 617.942 447.104C619.11 447.104 620.054 446.592 620.374 445.536H621.638ZM620.454 443.2C620.31 441.616 619.494 440.608 617.926 440.608C616.374 440.608 615.366 441.664 615.19 443.2H620.454Z" fill="#374151"/>
</g>
<g clip-path="url(#clip1_2092_558)">
<path fill-rule="evenodd" clip-rule="evenodd" d="M963.186 212.328L961.9 215.471L965.576 214.442L966.286 214.822C967.688 215.573 969.291 216 971 216C976.523 216 981 211.523 981 206C981 200.477 976.523 196 971 196C965.477 196 961 200.477 961 206C961 208.014 961.593 209.883 962.614 211.449L963.186 212.328ZM960.938 212.541L959.274 216.607C958.959 217.377 959.668 218.173 960.47 217.949L965.341 216.585C967.027 217.488 968.954 218 971 218C977.627 218 983 212.627 983 206C983 199.373 977.627 194 971 194C964.373 194 959 199.373 959 206C959 208.413 959.712 210.66 960.938 212.541Z" fill="#5276FA" fill-opacity="0.8"/>
</g>
<g clip-path="url(#clip2_2092_558)">
<path fill-rule="evenodd" clip-rule="evenodd" d="M977.374 240L980.997 243.623L978.603 246.017L974.98 242.394L977.374 240ZM973.566 243.808L964.659 252.716L968.281 256.338L977.189 247.431L973.566 243.808ZM962.422 254.953L963.244 254.13L966.867 257.753L966.044 258.575L963.442 259.176C963.455 259.018 963.442 258.854 963.401 258.691C963.267 258.152 962.846 257.731 962.306 257.596C962.143 257.555 961.979 257.542 961.821 257.555L962.422 254.953ZM975.96 238.586C976.741 237.805 978.008 237.805 978.789 238.586L982.411 242.208C983.192 242.989 983.192 244.256 982.411 245.037L967.458 259.99C967.193 260.255 966.859 260.44 966.494 260.524L960.226 261.971C959.506 262.137 958.86 261.491 959.026 260.771L960.473 254.503C960.557 254.138 960.742 253.804 961.007 253.539L975.96 238.586Z" fill="#A9ADB3"/>
</g>
<g clip-path="url(#clip3_2092_558)">
<path fill-rule="evenodd" clip-rule="evenodd" d="M968.786 286H973.214C973.237 285.892 973.257 285.783 973.273 285.671C973.325 285.303 973.315 285.016 973.248 284.805C973.192 284.63 973.086 284.464 972.814 284.318C972.509 284.155 971.959 284 971 284C970.041 284 969.491 284.155 969.186 284.318C968.914 284.464 968.808 284.63 968.752 284.805C968.685 285.016 968.675 285.303 968.727 285.671C968.743 285.783 968.763 285.892 968.786 286ZM975.246 286H982C982.552 286 983 286.448 983 287C983 287.552 982.552 288 982 288H981.7L979.255 304.297C979.109 305.276 978.268 306 977.278 306H964.722C963.732 306 962.891 305.276 962.745 304.297L960.3 288H960C959.448 288 959 287.552 959 287C959 286.448 959.448 286 960 286H966.754C966.752 285.985 966.75 285.969 966.748 285.954C966.675 285.447 966.649 284.817 966.848 284.195C967.058 283.536 967.503 282.952 968.239 282.557C968.943 282.179 969.859 282 971 282C972.141 282 973.057 282.179 973.761 282.557C974.497 282.952 974.942 283.536 975.152 284.195C975.351 284.817 975.325 285.447 975.252 285.954C975.25 285.969 975.248 285.985 975.246 286ZM973.979 288C973.994 288 974.008 288 974.022 288H979.678L977.278 304L964.722 304L962.322 288H967.978C967.992 288 968.006 288 968.021 288H973.979Z" fill="#A9ADB3"/>
</g>
<g filter="url(#filter1_d_2092_558)">
<rect x="263" y="532" width="672" height="192" rx="6" fill="white"/>
<path d="M384.371 566.148V579H382.859V573.168H376.415V579H374.903V566.148H376.415V571.89H382.859V566.148H384.371ZM390.848 579.18C388.022 579.18 386.24 577.038 386.24 574.356C386.24 571.674 388.022 569.514 390.848 569.514C393.692 569.514 395.474 571.674 395.474 574.356C395.474 577.038 393.692 579.18 390.848 579.18ZM387.68 574.356C387.68 576.354 388.958 577.974 390.848 577.974C392.756 577.974 394.034 576.354 394.034 574.356C394.034 572.34 392.756 570.72 390.848 570.72C388.958 570.72 387.68 572.34 387.68 574.356ZM396.231 569.694H397.725L399.309 575.58L399.723 577.308H399.741L400.155 575.598L401.739 569.694H403.593L405.159 575.562C405.303 576.138 405.447 576.75 405.609 577.326H405.627L406.059 575.562L407.625 569.694H409.119L406.419 579H404.781L403.089 572.808L402.675 571.206H402.657L402.243 572.808L400.551 579H398.913L396.231 569.694ZM415.906 566.148V579H414.466V566.148H415.906ZM418.263 567.948V566.148H419.811V567.948H418.263ZM418.245 569.694H419.685V579H418.245V569.694ZM422.13 579V566.148H423.57V573.888L427.746 569.694H429.51L425.586 573.618L429.654 579H427.854L424.596 574.608L423.57 575.58V579H422.13ZM438.579 576.228C438.039 578.136 436.527 579.18 434.457 579.18C431.667 579.18 429.921 577.146 429.921 574.32C429.921 571.566 431.739 569.514 434.403 569.514C437.571 569.514 438.615 571.98 438.687 574.392L438.705 574.752H431.307C431.433 576.768 432.657 577.992 434.421 577.992C435.735 577.992 436.797 577.416 437.157 576.228H438.579ZM437.247 573.6C437.085 571.818 436.167 570.684 434.403 570.684C432.657 570.684 431.523 571.872 431.325 573.6H437.247ZM441.957 566.148V579H440.517V566.148H441.957ZM444.818 569.694L447.878 577.596H447.896L450.65 569.694H452.18L447.986 580.818C447.572 581.916 446.942 582.6 445.682 582.6H444.548V581.394H445.502C446.438 581.394 446.6 580.782 446.852 580.098L447.176 579.27L443.288 569.694H444.818ZM457.533 572.484C457.749 571.134 458.883 569.496 461.241 569.496C464.463 569.496 464.913 571.512 464.913 572.952V577.092C464.913 577.794 464.985 578.514 465.057 579H463.527C463.491 578.532 463.491 578.136 463.491 577.614V577.218H463.473C463.203 577.974 462.411 579.198 460.323 579.198C458.091 579.198 457.047 577.812 457.047 576.462C457.047 574.05 459.981 573.816 461.565 573.546C462.915 573.312 463.491 572.988 463.491 572.196C463.491 571.26 462.645 570.702 461.277 570.702C460.089 570.702 459.207 571.386 458.973 572.484H457.533ZM458.469 576.462C458.469 577.398 459.297 578.028 460.557 578.028C462.087 578.028 463.509 577.002 463.509 574.68V573.348C463.293 573.96 462.717 574.464 460.791 574.77C459.351 575.022 458.469 575.49 458.469 576.462ZM468.658 571.548C469.126 570.252 470.026 569.658 471.484 569.658V571.008C471.286 571.008 470.944 571.044 470.656 571.134C469.612 571.404 468.658 572.034 468.658 574.5V579H467.218V569.694H468.658V571.548ZM481.03 576.228C480.49 578.136 478.978 579.18 476.908 579.18C474.118 579.18 472.372 577.146 472.372 574.32C472.372 571.566 474.19 569.514 476.854 569.514C480.022 569.514 481.066 571.98 481.138 574.392L481.156 574.752H473.758C473.884 576.768 475.108 577.992 476.872 577.992C478.186 577.992 479.248 577.416 479.608 576.228H481.03ZM479.698 573.6C479.536 571.818 478.618 570.684 476.854 570.684C475.108 570.684 473.974 571.872 473.776 573.6H479.698ZM487.498 569.694L490.558 577.596H490.576L493.33 569.694H494.86L490.666 580.818C490.252 581.916 489.622 582.6 488.362 582.6H487.228V581.394H488.182C489.118 581.394 489.28 580.782 489.532 580.098L489.856 579.27L485.968 569.694H487.498ZM500.008 579.18C497.182 579.18 495.4 577.038 495.4 574.356C495.4 571.674 497.182 569.514 500.008 569.514C502.852 569.514 504.634 571.674 504.634 574.356C504.634 577.038 502.852 579.18 500.008 579.18ZM496.84 574.356C496.84 576.354 498.118 577.974 500.008 577.974C501.916 577.974 503.194 576.354 503.194 574.356C503.194 572.34 501.916 570.72 500.008 570.72C498.118 570.72 496.84 572.34 496.84 574.356ZM506.327 569.694H507.767V575.544C507.767 577.308 508.559 577.974 509.855 577.974C511.241 577.974 512.519 576.894 512.519 574.338V569.694H513.959V579H512.519V577.236C512.033 578.298 511.187 579.18 509.693 579.18C507.389 579.18 506.327 577.758 506.327 575.67V569.694ZM522.086 576.588C522.086 577.38 522.518 577.812 523.238 577.812H523.904V579H523.13C521.42 579 520.682 578.028 520.682 576.66V570.882H519.278V569.694H520.682V567.498L522.086 566.85V569.694H523.868V570.882H522.086V576.588ZM529.627 579.18C526.801 579.18 525.019 577.038 525.019 574.356C525.019 571.674 526.801 569.514 529.627 569.514C532.471 569.514 534.253 571.674 534.253 574.356C534.253 577.038 532.471 579.18 529.627 579.18ZM526.459 574.356C526.459 576.354 527.737 577.974 529.627 577.974C531.535 577.974 532.813 576.354 532.813 574.356C532.813 572.34 531.535 570.72 529.627 570.72C527.737 570.72 526.459 572.34 526.459 574.356ZM541.466 571.548C541.934 570.252 542.834 569.658 544.292 569.658V571.008C544.094 571.008 543.752 571.044 543.464 571.134C542.42 571.404 541.466 572.034 541.466 574.5V579H540.026V569.694H541.466V571.548ZM553.839 576.228C553.299 578.136 551.787 579.18 549.717 579.18C546.927 579.18 545.181 577.146 545.181 574.32C545.181 571.566 546.999 569.514 549.663 569.514C552.831 569.514 553.875 571.98 553.947 574.392L553.965 574.752H546.567C546.693 576.768 547.917 577.992 549.681 577.992C550.995 577.992 552.057 577.416 552.417 576.228H553.839ZM552.507 573.6C552.345 571.818 551.427 570.684 549.663 570.684C547.917 570.684 546.783 571.872 546.585 573.6H552.507ZM564.002 576.21C563.498 578.082 562.13 579.18 559.934 579.18C557.054 579.18 555.236 577.092 555.236 574.356C555.236 571.62 557.054 569.514 559.934 569.514C562.22 569.514 563.534 570.756 563.948 572.412H562.49C562.13 571.494 561.392 570.684 559.898 570.684C557.936 570.684 556.676 572.286 556.676 574.356C556.676 576.408 557.936 577.992 559.898 577.992C561.266 577.992 562.13 577.362 562.544 576.21H564.002ZM569.933 579.18C567.107 579.18 565.325 577.038 565.325 574.356C565.325 571.674 567.107 569.514 569.933 569.514C572.777 569.514 574.559 571.674 574.559 574.356C574.559 577.038 572.777 579.18 569.933 579.18ZM566.765 574.356C566.765 576.354 568.043 577.974 569.933 577.974C571.841 577.974 573.119 576.354 573.119 574.356C573.119 572.34 571.841 570.72 569.933 570.72C568.043 570.72 566.765 572.34 566.765 574.356ZM576.325 569.694H577.765V571.314C577.999 570.432 578.935 569.496 580.177 569.496C581.653 569.496 582.535 570.072 582.985 571.35C583.597 570.072 584.443 569.496 585.685 569.496C587.809 569.496 588.799 570.936 588.799 573.024V579H587.359V573.15C587.359 571.386 586.639 570.702 585.523 570.702C584.281 570.702 583.273 571.854 583.273 574.266V579H581.833V573.15C581.833 571.386 581.275 570.702 580.015 570.702C578.341 570.702 577.765 572.394 577.765 574.356V579H576.325V569.694ZM591.073 569.694H592.513V571.314C592.747 570.432 593.683 569.496 594.925 569.496C596.401 569.496 597.283 570.072 597.733 571.35C598.345 570.072 599.191 569.496 600.433 569.496C602.557 569.496 603.547 570.936 603.547 573.024V579H602.107V573.15C602.107 571.386 601.387 570.702 600.271 570.702C599.029 570.702 598.021 571.854 598.021 574.266V579H596.581V573.15C596.581 571.386 596.023 570.702 594.763 570.702C593.089 570.702 592.513 572.394 592.513 574.356V579H591.073V569.694ZM613.903 576.228C613.363 578.136 611.851 579.18 609.781 579.18C606.991 579.18 605.245 577.146 605.245 574.32C605.245 571.566 607.063 569.514 609.727 569.514C612.895 569.514 613.939 571.98 614.011 574.392L614.029 574.752H606.631C606.757 576.768 607.981 577.992 609.745 577.992C611.059 577.992 612.121 577.416 612.481 576.228H613.903ZM612.571 573.6C612.409 571.818 611.491 570.684 609.727 570.684C607.981 570.684 606.847 571.872 606.649 573.6H612.571ZM615.841 569.694H617.281V571.44C617.767 570.396 618.631 569.514 620.107 569.514C622.411 569.514 623.473 570.936 623.473 573.024V579H622.033V573.15C622.033 571.386 621.241 570.72 619.945 570.72C618.559 570.72 617.281 571.8 617.281 574.356V579H615.841V569.694ZM629.391 569.514C631.101 569.514 632.253 570.594 632.631 571.584H632.649V566.148H634.089V579H632.649V577.128H632.631C632.235 578.136 631.101 579.18 629.391 579.18C626.727 579.18 625.161 577.128 625.161 574.338C625.161 571.53 626.727 569.514 629.391 569.514ZM626.601 574.338C626.601 576.408 627.645 577.956 629.661 577.956C631.767 577.956 632.721 576.174 632.721 574.338C632.721 572.412 631.713 570.72 629.661 570.72C627.681 570.72 626.601 572.25 626.601 574.338ZM644.465 579.18C641.639 579.18 639.857 577.038 639.857 574.356C639.857 571.674 641.639 569.514 644.465 569.514C647.309 569.514 649.091 571.674 649.091 574.356C649.091 577.038 647.309 579.18 644.465 579.18ZM641.297 574.356C641.297 576.354 642.575 577.974 644.465 577.974C646.373 577.974 647.651 576.354 647.651 574.356C647.651 572.34 646.373 570.72 644.465 570.72C642.575 570.72 641.297 572.34 641.297 574.356ZM650.785 569.694H652.225V575.544C652.225 577.308 653.017 577.974 654.313 577.974C655.699 577.974 656.977 576.894 656.977 574.338V569.694H658.417V579H656.977V577.236C656.491 578.298 655.645 579.18 654.151 579.18C651.847 579.18 650.785 577.758 650.785 575.67V569.694ZM662.193 571.548C662.661 570.252 663.561 569.658 665.019 569.658V571.008C664.821 571.008 664.479 571.044 664.191 571.134C663.147 571.404 662.193 572.034 662.193 574.5V579H660.753V569.694H662.193V571.548ZM675.383 569.514C678.065 569.514 679.613 571.53 679.613 574.338C679.613 577.128 678.065 579.18 675.383 579.18C673.673 579.18 672.539 578.136 672.143 577.128H672.125V582.6H670.685V569.694H672.125V571.584H672.143C672.539 570.594 673.673 569.514 675.383 569.514ZM672.071 574.338C672.071 576.174 673.007 577.956 675.131 577.956C677.147 577.956 678.173 576.408 678.173 574.338C678.173 572.25 677.093 570.72 675.131 570.72C673.061 570.72 672.071 572.412 672.071 574.338ZM682.812 571.548C683.28 570.252 684.18 569.658 685.638 569.658V571.008C685.44 571.008 685.098 571.044 684.81 571.134C683.766 571.404 682.812 572.034 682.812 574.5V579H681.372V569.694H682.812V571.548ZM691.135 579.18C688.309 579.18 686.527 577.038 686.527 574.356C686.527 571.674 688.309 569.514 691.135 569.514C693.979 569.514 695.761 571.674 695.761 574.356C695.761 577.038 693.979 579.18 691.135 579.18ZM687.967 574.356C687.967 576.354 689.245 577.974 691.135 577.974C693.043 577.974 694.321 576.354 694.321 574.356C694.321 572.34 693.043 570.72 691.135 570.72C689.245 570.72 687.967 572.34 687.967 574.356ZM701.216 569.514C702.926 569.514 704.078 570.594 704.456 571.584H704.474V566.148H705.914V579H704.474V577.128H704.456C704.06 578.136 702.926 579.18 701.216 579.18C698.552 579.18 696.986 577.128 696.986 574.338C696.986 571.53 698.552 569.514 701.216 569.514ZM698.426 574.338C698.426 576.408 699.47 577.956 701.486 577.956C703.592 577.956 704.546 576.174 704.546 574.338C704.546 572.412 703.538 570.72 701.486 570.72C699.506 570.72 698.426 572.25 698.426 574.338ZM708.177 569.694H709.617V575.544C709.617 577.308 710.409 577.974 711.705 577.974C713.091 577.974 714.369 576.894 714.369 574.338V569.694H715.809V579H714.369V577.236C713.883 578.298 713.037 579.18 711.543 579.18C709.239 579.18 708.177 577.758 708.177 575.67V569.694ZM726.336 576.21C725.832 578.082 724.464 579.18 722.268 579.18C719.388 579.18 717.57 577.092 717.57 574.356C717.57 571.62 719.388 569.514 722.268 569.514C724.554 569.514 725.868 570.756 726.282 572.412H724.824C724.464 571.494 723.726 570.684 722.232 570.684C720.27 570.684 719.01 572.286 719.01 574.356C719.01 576.408 720.27 577.992 722.232 577.992C723.6 577.992 724.464 577.362 724.878 576.21H726.336ZM729.965 576.588C729.965 577.38 730.397 577.812 731.117 577.812H731.783V579H731.009C729.299 579 728.561 578.028 728.561 576.66V570.882H727.157V569.694H728.561V567.498L729.965 566.85V569.694H731.747V570.882H729.965V576.588ZM739.299 576.588C739.299 577.38 739.731 577.812 740.451 577.812H741.117V579H740.343C738.633 579 737.895 578.028 737.895 576.66V570.882H736.491V569.694H737.895V567.498L739.299 566.85V569.694H741.081V570.882H739.299V576.588ZM746.84 579.18C744.014 579.18 742.232 577.038 742.232 574.356C742.232 571.674 744.014 569.514 746.84 569.514C749.684 569.514 751.466 571.674 751.466 574.356C751.466 577.038 749.684 579.18 746.84 579.18ZM743.672 574.356C743.672 576.354 744.95 577.974 746.84 577.974C748.748 577.974 750.026 576.354 750.026 574.356C750.026 572.34 748.748 570.72 746.84 570.72C744.95 570.72 743.672 572.34 743.672 574.356ZM757.257 572.484C757.473 571.134 758.607 569.496 760.965 569.496C764.187 569.496 764.637 571.512 764.637 572.952V577.092C764.637 577.794 764.709 578.514 764.781 579H763.251C763.215 578.532 763.215 578.136 763.215 577.614V577.218H763.197C762.927 577.974 762.135 579.198 760.047 579.198C757.815 579.198 756.771 577.812 756.771 576.462C756.771 574.05 759.705 573.816 761.289 573.546C762.639 573.312 763.215 572.988 763.215 572.196C763.215 571.26 762.369 570.702 761.001 570.702C759.813 570.702 758.931 571.386 758.697 572.484H757.257ZM758.193 576.462C758.193 577.398 759.021 578.028 760.281 578.028C761.811 578.028 763.233 577.002 763.233 574.68V573.348C763.017 573.96 762.441 574.464 760.515 574.77C759.075 575.022 758.193 575.49 758.193 576.462ZM771.652 568.578C771.652 567.318 772.3 566.148 773.902 566.148H774.892V567.354H774.226C773.542 567.354 773.056 567.624 773.056 568.65V569.694H774.64V570.882H773.056V579H771.652V570.882H770.356V569.694H771.652V568.578ZM777.523 571.548C777.991 570.252 778.891 569.658 780.349 569.658V571.008C780.151 571.008 779.809 571.044 779.521 571.134C778.477 571.404 777.523 572.034 777.523 574.5V579H776.083V569.694H777.523V571.548ZM781.779 567.948V566.148H783.327V567.948H781.779ZM781.761 569.694H783.201V579H781.761V569.694ZM793.728 576.228C793.188 578.136 791.676 579.18 789.606 579.18C786.816 579.18 785.07 577.146 785.07 574.32C785.07 571.566 786.888 569.514 789.552 569.514C792.72 569.514 793.764 571.98 793.836 574.392L793.854 574.752H786.456C786.582 576.768 787.806 577.992 789.57 577.992C790.884 577.992 791.946 577.416 792.306 576.228H793.728ZM792.396 573.6C792.234 571.818 791.316 570.684 789.552 570.684C787.806 570.684 786.672 571.872 786.474 573.6H792.396ZM795.665 569.694H797.105V571.44C797.591 570.396 798.455 569.514 799.931 569.514C802.235 569.514 803.297 570.936 803.297 573.024V579H801.857V573.15C801.857 571.386 801.065 570.72 799.769 570.72C798.383 570.72 797.105 571.8 797.105 574.356V579H795.665V569.694ZM809.216 569.514C810.926 569.514 812.078 570.594 812.456 571.584H812.474V566.148H813.914V579H812.474V577.128H812.456C812.06 578.136 810.926 579.18 809.216 579.18C806.552 579.18 804.986 577.128 804.986 574.338C804.986 571.53 806.552 569.514 809.216 569.514ZM806.426 574.338C806.426 576.408 807.47 577.956 809.486 577.956C811.592 577.956 812.546 576.174 812.546 574.338C812.546 572.412 811.538 570.72 809.486 570.72C807.506 570.72 806.426 572.25 806.426 574.338ZM815.738 569.784C815.738 567.408 817.358 565.842 819.608 565.842C821.858 565.842 823.352 567.318 823.352 569.424C823.352 570.918 822.524 571.728 821.786 572.502C821.048 573.258 820.238 573.978 820.238 575.184V575.652H818.816V575.058C818.816 573.564 819.626 572.736 820.418 571.962C821.174 571.224 821.912 570.558 821.912 569.424C821.912 568.02 821.012 567.066 819.608 567.066C818.204 567.066 817.178 568.11 817.178 569.784V570.054H815.738V569.784ZM818.744 576.876H820.346V579H818.744V576.876Z" fill="#374151"/>
<path d="M316.296 640.992C318.546 640.992 319.41 638.058 319.41 635.574C319.41 633.108 318.546 630.3 316.296 630.3C314.064 630.3 313.2 633.108 313.2 635.574C313.2 638.058 314.064 640.992 316.296 640.992ZM311.76 635.574C311.76 632.298 312.948 629.076 316.296 629.076C319.662 629.076 320.85 632.298 320.85 635.574C320.85 638.85 319.662 642.216 316.296 642.216C312.948 642.216 311.76 638.868 311.76 635.574Z" fill="#505A6B"/>
<path d="M537.511 637.5L543.235 629.148H544.531V637.446H546.025V638.652H544.531V642H543.091V638.652H537.511V637.5ZM543.091 637.446V631.56H543.037L539.023 637.446H543.091Z" fill="#505A6B"/>
<path d="M424.516 633.216C424.516 630.57 426.046 629.076 428.71 629.076C431.14 629.076 432.67 630.516 432.67 632.748C432.67 635.016 431.41 635.88 430.006 636.978C428.44 638.184 426.676 639.156 426.208 640.794H432.814V642H424.354C424.534 639.192 426.478 637.752 428.224 636.546C430.186 635.196 431.23 634.422 431.23 632.802C431.23 631.434 430.348 630.282 428.638 630.282C426.838 630.282 425.974 631.578 425.956 633.216H424.516Z" fill="#505A6B"/>
<path d="M650.606 635.844C650.606 632.496 651.776 629.04 655.142 629.04C657.734 629.04 658.814 630.444 659.21 632.226H657.77C657.464 631.29 657.068 630.264 655.232 630.264C652.946 630.264 652.19 632.694 652.046 635.088C652.73 634.044 653.9 633.414 655.412 633.414C657.878 633.414 659.642 635.376 659.642 637.842C659.642 640.362 657.662 642.216 655.124 642.216C653.774 642.216 652.55 641.658 651.74 640.704C650.804 639.624 650.606 638.094 650.606 635.844ZM652.172 637.842C652.172 639.552 653.414 640.992 655.124 640.992C656.834 640.992 658.202 639.552 658.202 637.842C658.202 636.132 656.906 634.674 655.124 634.674C653.414 634.674 652.172 635.934 652.172 637.842Z" fill="#505A6B"/>
<path d="M820.509 633.414C820.509 630.894 822.489 629.04 825.027 629.04C826.377 629.04 827.637 629.544 828.447 630.516C829.347 631.578 829.545 633.162 829.545 635.412C829.545 639.048 828.303 642.216 825.099 642.216C822.651 642.216 821.211 640.812 820.869 639.03H822.309C822.561 639.966 823.227 640.992 825.009 640.992C827.133 640.992 827.943 639.048 828.087 636.312C827.529 637.122 826.359 637.842 824.883 637.842C822.363 637.842 820.509 635.934 820.509 633.414ZM821.949 633.414C821.949 635.124 823.245 636.582 825.027 636.582C826.809 636.582 828.087 635.106 828.087 633.414C828.087 631.632 826.737 630.264 825.027 630.264C823.317 630.264 821.949 631.704 821.949 633.414Z" fill="#505A6B"/>
<path d="M372.455 642V632.406H369.467V631.308C371.411 631.308 372.383 631.092 372.725 629.148H373.895V642H372.455Z" fill="#505A6B"/>
<path d="M595.95 634.476C596.58 633.81 597.588 633.414 598.758 633.414C601.332 633.414 603.006 635.034 603.006 637.824C603.006 640.218 601.278 642.216 598.542 642.216C596.31 642.216 594.348 640.83 594.186 638.562H595.626C595.806 639.948 597.012 640.992 598.542 640.992C600.09 640.992 601.566 639.912 601.566 637.824C601.566 635.916 600.576 634.674 598.524 634.674C597.228 634.674 596.364 635.448 595.932 636.222L594.456 636.042L595.446 629.148H601.926V630.372H596.58L595.95 634.476Z" fill="#505A6B"/>
<path d="M768.419 629.04C770.687 629.04 772.433 630.3 772.433 632.244C772.433 633.702 771.569 634.818 770.345 635.178C771.605 635.52 772.901 636.726 772.901 638.526C772.919 640.866 770.975 642.216 768.437 642.216C765.809 642.216 763.865 640.866 763.883 638.526C763.901 636.726 765.251 635.502 766.493 635.16C765.179 634.746 764.405 633.72 764.405 632.244C764.405 630.3 766.133 629.04 768.419 629.04ZM765.323 638.418C765.323 639.894 766.439 641.01 768.419 641.01C770.381 641.01 771.461 639.894 771.461 638.4C771.461 636.96 770.381 635.826 768.419 635.826C766.439 635.826 765.323 636.96 765.323 638.418ZM765.863 632.478C765.863 633.684 766.835 634.692 768.419 634.692C770.003 634.692 770.975 633.684 770.975 632.478C770.975 631.308 770.039 630.264 768.419 630.264C766.781 630.264 765.863 631.308 765.863 632.478Z" fill="#505A6B"/>
<path d="M481.608 632.46C481.68 630.48 483.048 629.076 485.406 629.076C487.656 629.076 488.988 630.372 488.988 632.19C488.988 633.684 488.412 634.494 487.368 635.07C488.736 635.556 489.654 636.492 489.654 638.364C489.654 640.614 488.034 642.216 485.352 642.216C482.742 642.216 481.284 640.848 481.032 638.508V638.31H482.544V638.49C482.706 640.2 483.786 640.992 485.37 640.992C487.152 640.992 488.214 639.858 488.214 638.328C488.214 636.42 486.63 635.826 485.01 635.826H484.614V634.458C484.884 634.458 485.118 634.44 485.352 634.422C486.684 634.314 487.548 633.666 487.548 632.352C487.548 631.074 486.738 630.318 485.352 630.318C483.93 630.318 483.192 631.128 483.066 632.208L483.03 632.46H481.608Z" fill="#505A6B"/>
<path d="M715.695 630.48C713.103 633.054 710.961 637.896 710.709 642H709.269C709.575 637.338 711.771 633.054 713.985 630.372H707.469V629.148H715.695V630.48Z" fill="#505A6B"/>
<path d="M875.843 642V632.406H872.855V631.308C874.799 631.308 875.771 631.092 876.113 629.148H877.283V642H875.843ZM884.446 640.992C886.696 640.992 887.56 638.058 887.56 635.574C887.56 633.108 886.696 630.3 884.446 630.3C882.214 630.3 881.35 633.108 881.35 635.574C881.35 638.058 882.214 640.992 884.446 640.992ZM879.91 635.574C879.91 632.298 881.098 629.076 884.446 629.076C887.812 629.076 889 632.298 889 635.574C889 638.85 887.812 642.216 884.446 642.216C881.098 642.216 879.91 638.868 879.91 635.574Z" fill="#505A6B"/>
<path d="M291 612.5H343.134V660.5H291C289.067 660.5 287.5 658.933 287.5 657V616C287.5 614.067 289.067 612.5 291 612.5Z" stroke="#E4E7EB"/>
<mask id="path-32-inside-1_2092_558" fill="white">
<path d="M400.269 612H456.903V661H400.269V612Z"/>
</mask>
<path d="M456.903 612H457.903V611H456.903V612ZM456.903 661V662H457.903V661H456.903ZM400.269 613H456.903V611H400.269V613ZM455.903 612V661H457.903V612H455.903ZM456.903 660H400.269V662H456.903V660Z" fill="#E4E7EB" mask="url(#path-32-inside-1_2092_558)"/>
<mask id="path-34-inside-2_2092_558" fill="white">
<path d="M683.439 612H740.074V661H683.439V612Z"/>
</mask>
<path d="M740.074 612H741.074V611H740.074V612ZM740.074 661V662H741.074V661H740.074ZM683.439 613H740.074V611H683.439V613ZM739.074 612V661H741.074V612H739.074ZM740.074 660H683.439V662H740.074V660Z" fill="#E4E7EB" mask="url(#path-34-inside-2_2092_558)"/>
<mask id="path-36-inside-3_2092_558" fill="white">
<path d="M513.537 612H570.171V661H513.537V612Z"/>
</mask>
<path d="M570.171 612H571.171V611H570.171V612ZM570.171 661V662H571.171V661H570.171ZM513.537 613H570.171V611H513.537V613ZM569.171 612V661H571.171V612H569.171ZM570.171 660H513.537V662H570.171V660Z" fill="#E4E7EB" mask="url(#path-36-inside-3_2092_558)"/>
<mask id="path-38-inside-4_2092_558" fill="white">
<path d="M796.708 612H853.342V661H796.708V612Z"/>
</mask>
<path d="M853.342 612H854.342V611H853.342V612ZM853.342 661V662H854.342V661H853.342ZM796.708 613H853.342V611H796.708V613ZM852.342 612V661H854.342V612H852.342ZM853.342 660H796.708V662H853.342V660Z" fill="#E4E7EB" mask="url(#path-38-inside-4_2092_558)"/>
<mask id="path-40-inside-5_2092_558" fill="white">
<path d="M343.634 612H400.268V661H343.634V612Z"/>
</mask>
<path d="M400.268 612H401.268V611H400.268V612ZM400.268 661V662H401.268V661H400.268ZM343.634 613H400.268V611H343.634V613ZM399.268 612V661H401.268V612H399.268ZM400.268 660H343.634V662H400.268V660Z" fill="#E4E7EB" mask="url(#path-40-inside-5_2092_558)"/>
<mask id="path-42-inside-6_2092_558" fill="white">
<path d="M626.806 612H683.44V661H626.806V612Z"/>
</mask>
<path d="M683.44 612H684.44V611H683.44V612ZM683.44 661V662H684.44V661H683.44ZM626.806 613H683.44V611H626.806V613ZM682.44 612V661H684.44V612H682.44ZM683.44 660H626.806V662H683.44V660Z" fill="#E4E7EB" mask="url(#path-42-inside-6_2092_558)"/>
<mask id="path-44-inside-7_2092_558" fill="white">
<path d="M456.902 612H513.537V661H456.902V612Z"/>
</mask>
<path d="M513.537 612H514.537V611H513.537V612ZM513.537 661V662H514.537V661H513.537ZM456.902 613H513.537V611H456.902V613ZM512.537 612V661H514.537V612H512.537ZM513.537 660H456.902V662H513.537V660Z" fill="#E4E7EB" mask="url(#path-44-inside-7_2092_558)"/>
<mask id="path-46-inside-8_2092_558" fill="white">
<path d="M740.074 612H796.708V661H740.074V612Z"/>
</mask>
<path d="M796.708 612H797.708V611H796.708V612ZM796.708 661V662H797.708V661H796.708ZM740.074 613H796.708V611H740.074V613ZM795.708 612V661H797.708V612H795.708ZM796.708 660H740.074V662H796.708V660Z" fill="#E4E7EB" mask="url(#path-46-inside-8_2092_558)"/>
<mask id="path-48-inside-9_2092_558" fill="white">
<path d="M570.171 612H626.805V661H570.171V612Z"/>
</mask>
<path d="M626.805 612H627.805V611H626.805V612ZM626.805 661V662H627.805V661H626.805ZM570.171 613H626.805V611H570.171V613ZM625.805 612V661H627.805V612H625.805ZM626.805 660H570.171V662H626.805V660Z" fill="#E4E7EB" mask="url(#path-48-inside-9_2092_558)"/>
<path d="M852.866 612.5H905C906.933 612.5 908.5 614.067 908.5 616V657C908.5 658.933 906.933 660.5 905 660.5H852.866V612.5Z" stroke="#E4E7EB"/>
<path d="M294.6 689.096L295.832 691.096L295.816 688.888V681.576H297.16V693H295.496L290.792 685.56L289.56 683.56L289.576 685.896V693H288.232V681.576H289.864L294.6 689.096ZM302.921 693.16C300.409 693.16 298.825 691.256 298.825 688.872C298.825 686.488 300.409 684.568 302.921 684.568C305.449 684.568 307.033 686.488 307.033 688.872C307.033 691.256 305.449 693.16 302.921 693.16ZM300.105 688.872C300.105 690.648 301.241 692.088 302.921 692.088C304.617 692.088 305.753 690.648 305.753 688.872C305.753 687.08 304.617 685.64 302.921 685.64C301.241 685.64 300.105 687.08 300.105 688.872ZM310.171 690.856C310.171 691.56 310.555 691.944 311.195 691.944H311.787V693H311.099C309.579 693 308.923 692.136 308.923 690.92V685.784H307.675V684.728H308.923V682.776L310.171 682.2V684.728H311.755V685.784H310.171V690.856ZM317.364 684.728L319.828 691.672H319.844L322.276 684.728H323.668L320.516 693H319.124L315.988 684.728H317.364ZM331.849 690.536C331.369 692.232 330.025 693.16 328.185 693.16C325.705 693.16 324.153 691.352 324.153 688.84C324.153 686.392 325.769 684.568 328.137 684.568C330.953 684.568 331.881 686.76 331.945 688.904L331.961 689.224H325.385C325.497 691.016 326.585 692.104 328.153 692.104C329.321 692.104 330.265 691.592 330.585 690.536H331.849ZM330.665 688.2C330.521 686.616 329.705 685.608 328.137 685.608C326.585 685.608 325.577 686.664 325.401 688.2H330.665ZM334.851 686.376C335.267 685.224 336.067 684.696 337.363 684.696V685.896C337.187 685.896 336.883 685.928 336.627 686.008C335.699 686.248 334.851 686.808 334.851 689V693H333.571V684.728H334.851V686.376ZM339.551 684.728L342.271 691.752H342.287L344.735 684.728H346.095L342.367 694.616C341.999 695.592 341.439 696.2 340.319 696.2H339.311V695.128H340.159C340.991 695.128 341.135 694.584 341.359 693.976L341.647 693.24L338.191 684.728H339.551ZM352.117 681.576V693H350.837V681.576H352.117ZM354.212 683.176V681.576H355.588V683.176H354.212ZM354.196 684.728H355.476V693H354.196V684.728ZM357.649 693V681.576H358.929V688.456L362.641 684.728H364.209L360.721 688.216L364.337 693H362.737L359.841 689.096L358.929 689.96V693H357.649ZM372.271 690.536C371.791 692.232 370.447 693.16 368.607 693.16C366.127 693.16 364.575 691.352 364.575 688.84C364.575 686.392 366.191 684.568 368.559 684.568C371.375 684.568 372.303 686.76 372.367 688.904L372.383 689.224H365.807C365.919 691.016 367.007 692.104 368.575 692.104C369.743 692.104 370.687 691.592 371.007 690.536H372.271ZM371.087 688.2C370.943 686.616 370.127 685.608 368.559 685.608C367.007 685.608 365.999 686.664 365.823 688.2H371.087ZM375.273 681.576V693H373.993V681.576H375.273ZM377.817 684.728L380.536 691.752H380.553L383.001 684.728H384.361L380.633 694.616C380.265 695.592 379.705 696.2 378.585 696.2H377.577V695.128H378.424C379.257 695.128 379.401 694.584 379.625 693.976L379.913 693.24L376.457 684.728H377.817Z" fill="#878E99"/>
<path d="M839.554 681.576L843.058 691.624H843.122L846.642 681.576H848.114L843.938 692.984L842.226 693L838.082 681.576H839.554ZM855.349 690.536C854.869 692.232 853.525 693.16 851.685 693.16C849.205 693.16 847.653 691.352 847.653 688.84C847.653 686.392 849.269 684.568 851.637 684.568C854.453 684.568 855.381 686.76 855.445 688.904L855.461 689.224H848.885C848.997 691.016 850.085 692.104 851.653 692.104C852.821 692.104 853.765 691.592 854.085 690.536H855.349ZM854.165 688.2C854.021 686.616 853.205 685.608 851.637 685.608C850.085 685.608 849.077 686.664 848.901 688.2H854.165ZM858.351 686.376C858.767 685.224 859.567 684.696 860.863 684.696V685.896C860.687 685.896 860.383 685.928 860.127 686.008C859.199 686.248 858.351 686.808 858.351 689V693H857.071V684.728H858.351V686.376ZM863.051 684.728L865.771 691.752H865.787L868.235 684.728H869.595L865.867 694.616C865.499 695.592 864.939 696.2 863.819 696.2H862.811V695.128H863.659C864.491 695.128 864.635 694.584 864.859 693.976L865.147 693.24L861.691 684.728H863.051ZM875.617 681.576V693H874.337V681.576H875.617ZM877.712 683.176V681.576H879.088V683.176H877.712ZM877.696 684.728H878.976V693H877.696V684.728ZM881.149 693V681.576H882.429V688.456L886.141 684.728H887.709L884.221 688.216L887.837 693H886.237L883.341 689.096L882.429 689.96V693H881.149ZM895.771 690.536C895.291 692.232 893.947 693.16 892.107 693.16C889.627 693.16 888.075 691.352 888.075 688.84C888.075 686.392 889.691 684.568 892.059 684.568C894.875 684.568 895.803 686.76 895.867 688.904L895.883 689.224H889.307C889.419 691.016 890.507 692.104 892.075 692.104C893.243 692.104 894.187 691.592 894.507 690.536H895.771ZM894.587 688.2C894.443 686.616 893.627 685.608 892.059 685.608C890.507 685.608 889.499 686.664 889.323 688.2H894.587ZM898.773 681.576V693H897.493V681.576H898.773ZM901.317 684.728L904.036 691.752H904.053L906.501 684.728H907.861L904.133 694.616C903.765 695.592 903.205 696.2 902.085 696.2H901.077V695.128H901.924C902.757 695.128 902.901 694.584 903.125 693.976L903.413 693.24L899.957 684.728H901.317Z" fill="#878E99"/>
</g>
<circle cx="979" cy="198" r="5" fill="#FA7E7E"/>
<rect width="1360" height="67" transform="translate(-80)" fill="white"/>
<mask id="path-54-inside-10_2092_558" fill="white">
<path d="M-80 0H1200V67H-80V0Z"/>
</mask>
<path d="M-80 0H1200V67H-80V0Z" fill="white"/>
<path d="M1200 66H-80V68H1200V66Z" fill="#E5E7EB" mask="url(#path-54-inside-10_2092_558)"/>
<rect x="16.5" y="14.5" width="122" height="37" rx="18.5" fill="white"/>
<rect x="16.5" y="14.5" width="122" height="37" rx="18.5" stroke="#D1D5DB"/>
<path d="M47.6606 34.672C47.1966 36.56 45.4046 38.192 42.5726 38.192C38.8446 38.192 36.7646 35.504 36.7646 32.288C36.7646 29.072 38.8446 26.384 42.5726 26.384C45.3726 26.384 46.9406 27.872 47.6446 29.872H46.2846C45.6766 28.432 44.5726 27.52 42.5726 27.52C39.5966 27.52 38.1086 29.792 38.1086 32.288C38.1086 34.784 39.5806 37.056 42.5726 37.056C44.5886 37.056 45.8366 36.048 46.3006 34.672H47.6606ZM53.1084 38.16C50.5964 38.16 49.0124 36.256 49.0124 33.872C49.0124 31.488 50.5964 29.568 53.1084 29.568C55.6364 29.568 57.2204 31.488 57.2204 33.872C57.2204 36.256 55.6364 38.16 53.1084 38.16ZM50.2924 33.872C50.2924 35.648 51.4284 37.088 53.1084 37.088C54.8044 37.088 55.9404 35.648 55.9404 33.872C55.9404 32.08 54.8044 30.64 53.1084 30.64C51.4284 30.64 50.2924 32.08 50.2924 33.872ZM60.07 26.576V38H58.79V26.576H60.07ZM63.4294 26.576V38H62.1494V26.576H63.4294ZM65.5247 32.208C65.7168 31.008 66.7248 29.552 68.8208 29.552C71.6848 29.552 72.0848 31.344 72.0848 32.624V36.304C72.0848 36.928 72.1488 37.568 72.2128 38H70.8528C70.8208 37.584 70.8208 37.232 70.8208 36.768V36.416H70.8048C70.5648 37.088 69.8608 38.176 68.0048 38.176C66.0208 38.176 65.0928 36.944 65.0928 35.744C65.0928 33.6 67.7008 33.392 69.1088 33.152C70.3088 32.944 70.8208 32.656 70.8208 31.952C70.8208 31.12 70.0688 30.624 68.8528 30.624C67.7968 30.624 67.0128 31.232 66.8048 32.208H65.5247ZM66.3568 35.744C66.3568 36.576 67.0928 37.136 68.2128 37.136C69.5728 37.136 70.8368 36.224 70.8368 34.16V32.976C70.6448 33.52 70.1328 33.968 68.4208 34.24C67.1408 34.464 66.3568 34.88 66.3568 35.744ZM78.3098 29.568C80.6938 29.568 82.0698 31.36 82.0698 33.856C82.0698 36.336 80.6938 38.16 78.3098 38.16C76.7898 38.16 75.7818 37.232 75.4298 36.336H75.4138V38H74.1338V26.576H75.4138V31.408H75.4298C75.7818 30.528 76.7898 29.568 78.3098 29.568ZM75.3658 33.856C75.3658 35.488 76.1978 37.072 78.0858 37.072C79.8778 37.072 80.7898 35.696 80.7898 33.856C80.7898 32 79.8298 30.64 78.0858 30.64C76.2458 30.64 75.3658 32.144 75.3658 33.856ZM87.249 38.16C84.737 38.16 83.153 36.256 83.153 33.872C83.153 31.488 84.737 29.568 87.249 29.568C89.777 29.568 91.361 31.488 91.361 33.872C91.361 36.256 89.777 38.16 87.249 38.16ZM84.433 33.872C84.433 35.648 85.569 37.088 87.249 37.088C88.945 37.088 90.081 35.648 90.081 33.872C90.081 32.08 88.945 30.64 87.249 30.64C85.569 30.64 84.433 32.08 84.433 33.872ZM94.2106 31.376C94.6266 30.224 95.4266 29.696 96.7226 29.696V30.896C96.5466 30.896 96.2426 30.928 95.9866 31.008C95.0586 31.248 94.2106 31.808 94.2106 34V38H92.9306V29.728H94.2106V31.376ZM97.681 32.208C97.873 31.008 98.881 29.552 100.977 29.552C103.841 29.552 104.241 31.344 104.241 32.624V36.304C104.241 36.928 104.305 37.568 104.369 38H103.009C102.977 37.584 102.977 37.232 102.977 36.768V36.416H102.961C102.721 37.088 102.017 38.176 100.161 38.176C98.177 38.176 97.249 36.944 97.249 35.744C97.249 33.6 99.857 33.392 101.265 33.152C102.465 32.944 102.977 32.656 102.977 31.952C102.977 31.12 102.225 30.624 101.009 30.624C99.953 30.624 99.169 31.232 98.961 32.208H97.681ZM98.513 35.744C98.513 36.576 99.249 37.136 100.369 37.136C101.729 37.136 102.993 36.224 102.993 34.16V32.976C102.801 33.52 102.289 33.968 100.577 34.24C99.297 34.464 98.513 34.88 98.513 35.744ZM107.874 35.856C107.874 36.56 108.258 36.944 108.898 36.944H109.49V38H108.802C107.282 38 106.626 37.136 106.626 35.92V30.784H105.378V29.728H106.626V27.776L107.874 27.2V29.728H109.458V30.784H107.874V35.856ZM118.177 35.536C117.697 37.232 116.353 38.16 114.513 38.16C112.033 38.16 110.481 36.352 110.481 33.84C110.481 31.392 112.097 29.568 114.465 29.568C117.281 29.568 118.209 31.76 118.273 33.904L118.289 34.224H111.713C111.825 36.016 112.913 37.104 114.481 37.104C115.649 37.104 116.593 36.592 116.913 35.536H118.177ZM116.993 33.2C116.849 31.616 116.033 30.608 114.465 30.608C112.913 30.608 111.905 31.664 111.729 33.2H116.993Z" fill="#374151"/>
<rect x="933.5" y="14.5" width="95" height="37" rx="18.5" fill="white"/>
<rect x="933.5" y="14.5" width="95" height="37" rx="18.5" stroke="#D1D5DB"/>
<path d="M958.189 32.224C959.917 32.224 960.909 31.408 960.909 29.952C960.909 28.56 960.013 27.712 958.285 27.712H956.045V32.224H958.189ZM958.445 26.576C960.653 26.576 962.253 27.952 962.253 29.952C962.253 31.968 960.589 33.36 958.349 33.36H956.045V38H954.701V26.576H958.445ZM964.961 31.376C965.377 30.224 966.177 29.696 967.473 29.696V30.896C967.297 30.896 966.993 30.928 966.737 31.008C965.809 31.248 964.961 31.808 964.961 34V38H963.681V29.728H964.961V31.376ZM975.958 35.536C975.478 37.232 974.134 38.16 972.294 38.16C969.814 38.16 968.262 36.352 968.262 33.84C968.262 31.392 969.878 29.568 972.246 29.568C975.062 29.568 975.99 31.76 976.054 33.904L976.07 34.224H969.494C969.606 36.016 970.694 37.104 972.262 37.104C973.43 37.104 974.374 36.592 974.694 35.536H975.958ZM974.774 33.2C974.63 31.616 973.814 30.608 972.246 30.608C970.694 30.608 969.686 31.664 969.51 33.2H974.774ZM977.973 29.728L980.437 36.672H980.453L982.885 29.728H984.277L981.125 38H979.733L976.597 29.728H977.973ZM985.478 28.176V26.576H986.854V28.176H985.478ZM985.462 29.728H986.742V38H985.462V29.728ZM996.099 35.536C995.619 37.232 994.275 38.16 992.435 38.16C989.955 38.16 988.403 36.352 988.403 33.84C988.403 31.392 990.019 29.568 992.387 29.568C995.203 29.568 996.131 31.76 996.195 33.904L996.211 34.224H989.635C989.747 36.016 990.835 37.104 992.403 37.104C993.571 37.104 994.515 36.592 994.835 35.536H996.099ZM994.915 33.2C994.771 31.616 993.955 30.608 992.387 30.608C990.835 30.608 989.827 31.664 989.651 33.2H994.915ZM996.925 29.728H998.253L999.661 34.96L1000.03 36.496H1000.05L1000.41 34.976L1001.82 29.728H1003.47L1004.86 34.944C1004.99 35.456 1005.12 36 1005.26 36.512H1005.28L1005.66 34.944L1007.05 29.728H1008.38L1005.98 38H1004.53L1003.02 32.496L1002.65 31.072H1002.64L1002.27 32.496L1000.77 38H999.309L996.925 29.728Z" fill="#374151"/>
<rect x="1043" y="14" width="141" height="38" rx="19" fill="#374151"/>
<path d="M1067.74 32.224C1069.47 32.224 1070.46 31.408 1070.46 29.952C1070.46 28.56 1069.57 27.712 1067.84 27.712H1065.6V32.224H1067.74ZM1068 26.576C1070.21 26.576 1071.81 27.952 1071.81 29.952C1071.81 31.968 1070.14 33.36 1067.9 33.36H1065.6V38H1064.26V26.576H1068ZM1073.36 29.728H1074.64V34.928C1074.64 36.496 1075.34 37.088 1076.49 37.088C1077.73 37.088 1078.86 36.128 1078.86 33.856V29.728H1080.14V38H1078.86V36.432C1078.43 37.376 1077.68 38.16 1076.35 38.16C1074.3 38.16 1073.36 36.896 1073.36 35.04V29.728ZM1086.4 29.568C1088.78 29.568 1090.16 31.36 1090.16 33.856C1090.16 36.336 1088.78 38.16 1086.4 38.16C1084.88 38.16 1083.87 37.232 1083.52 36.336H1083.5V38H1082.22V26.576H1083.5V31.408H1083.52C1083.87 30.528 1084.88 29.568 1086.4 29.568ZM1083.45 33.856C1083.45 35.488 1084.28 37.072 1086.17 37.072C1087.96 37.072 1088.88 35.696 1088.88 33.856C1088.88 32 1087.92 30.64 1086.17 30.64C1084.33 30.64 1083.45 32.144 1083.45 33.856ZM1093 26.576V38H1091.72V26.576H1093ZM1095.1 28.176V26.576H1096.47V28.176H1095.1ZM1095.08 29.728H1096.36V38H1095.08V29.728ZM1103.14 32.208C1103.03 31.056 1102.12 30.64 1101.22 30.64C1100.39 30.64 1099.56 31.072 1099.56 31.872C1099.56 32.592 1100.21 32.96 1101 33.152L1102.1 33.44C1103.33 33.744 1104.53 34.32 1104.53 35.664C1104.53 37.408 1102.74 38.16 1101.32 38.16C1099.94 38.16 1098.21 37.52 1098.02 35.52H1099.3C1099.48 36.608 1100.2 37.088 1101.36 37.088C1102.28 37.088 1103.25 36.752 1103.25 35.744C1103.25 34.992 1102.56 34.736 1101.73 34.528L1100.58 34.224C1099.38 33.936 1098.28 33.216 1098.28 31.92C1098.28 30.4 1099.84 29.568 1101.27 29.568C1102.85 29.568 1104.21 30.4 1104.4 32.208H1103.14ZM1106.09 26.576H1107.37V31.28C1107.81 30.352 1108.57 29.568 1109.89 29.568C1111.93 29.568 1112.88 30.832 1112.88 32.688V38H1111.6V32.8C1111.6 31.232 1110.89 30.64 1109.74 30.64C1108.51 30.64 1107.37 31.6 1107.37 33.872V38H1106.09V26.576ZM1123.06 32.208C1122.95 31.056 1122.04 30.64 1121.14 30.64C1120.31 30.64 1119.48 31.072 1119.48 31.872C1119.48 32.592 1120.13 32.96 1120.92 33.152L1122.02 33.44C1123.25 33.744 1124.45 34.32 1124.45 35.664C1124.45 37.408 1122.66 38.16 1121.24 38.16C1119.86 38.16 1118.13 37.52 1117.94 35.52H1119.22C1119.4 36.608 1120.12 37.088 1121.29 37.088C1122.2 37.088 1123.17 36.752 1123.17 35.744C1123.17 34.992 1122.49 34.736 1121.65 34.528L1120.5 34.224C1119.3 33.936 1118.2 33.216 1118.2 31.92C1118.2 30.4 1119.77 29.568 1121.19 29.568C1122.77 29.568 1124.13 30.4 1124.33 32.208H1123.06ZM1125.95 29.728H1127.23V34.928C1127.23 36.496 1127.94 37.088 1129.09 37.088C1130.32 37.088 1131.46 36.128 1131.46 33.856V29.728H1132.74V38H1131.46V36.432C1131.02 37.376 1130.27 38.16 1128.94 38.16C1126.9 38.16 1125.95 36.896 1125.95 35.04V29.728ZM1136.09 31.376C1136.51 30.224 1137.31 29.696 1138.61 29.696V30.896C1138.43 30.896 1138.13 30.928 1137.87 31.008C1136.94 31.248 1136.09 31.808 1136.09 34V38H1134.81V29.728H1136.09V31.376ZM1140.81 29.728L1143.27 36.672H1143.29L1145.72 29.728H1147.11L1143.96 38H1142.57L1139.43 29.728H1140.81ZM1155.29 35.536C1154.81 37.232 1153.47 38.16 1151.63 38.16C1149.15 38.16 1147.6 36.352 1147.6 33.84C1147.6 31.392 1149.21 29.568 1151.58 29.568C1154.4 29.568 1155.33 31.76 1155.39 33.904L1155.41 34.224H1148.83C1148.94 36.016 1150.03 37.104 1151.6 37.104C1152.77 37.104 1153.71 36.592 1154.03 35.536H1155.29ZM1154.11 33.2C1153.97 31.616 1153.15 30.608 1151.58 30.608C1150.03 30.608 1149.02 31.664 1148.85 33.2H1154.11ZM1157.29 29.728L1160.01 36.752H1160.03L1162.48 29.728H1163.84L1160.11 39.616C1159.74 40.592 1159.18 41.2 1158.06 41.2H1157.05V40.128H1157.9C1158.73 40.128 1158.88 39.584 1159.1 38.976L1159.39 38.24L1155.93 29.728H1157.29Z" fill="white"/>
<path d="M509.72 32.224C511.448 32.224 512.44 31.408 512.44 29.952C512.44 28.56 511.544 27.712 509.816 27.712H507.576V32.224H509.72ZM509.976 26.576C512.184 26.576 513.784 27.952 513.784 29.952C513.784 31.968 512.12 33.36 509.88 33.36H507.576V38H506.232V26.576H509.976ZM516.492 31.376C516.908 30.224 517.708 29.696 519.004 29.696V30.896C518.828 30.896 518.524 30.928 518.268 31.008C517.34 31.248 516.492 31.808 516.492 34V38H515.212V29.728H516.492V31.376ZM523.89 38.16C521.378 38.16 519.794 36.256 519.794 33.872C519.794 31.488 521.378 29.568 523.89 29.568C526.418 29.568 528.002 31.488 528.002 33.872C528.002 36.256 526.418 38.16 523.89 38.16ZM521.074 33.872C521.074 35.648 522.21 37.088 523.89 37.088C525.586 37.088 526.722 35.648 526.722 33.872C526.722 32.08 525.586 30.64 523.89 30.64C522.21 30.64 521.074 32.08 521.074 33.872ZM532.851 29.568C534.371 29.568 535.395 30.528 535.731 31.408H535.747V26.576H537.027V38H535.747V36.336H535.731C535.379 37.232 534.371 38.16 532.851 38.16C530.483 38.16 529.09 36.336 529.09 33.856C529.09 31.36 530.483 29.568 532.851 29.568ZM530.371 33.856C530.371 35.696 531.299 37.072 533.091 37.072C534.963 37.072 535.811 35.488 535.811 33.856C535.811 32.144 534.915 30.64 533.091 30.64C531.331 30.64 530.371 32 530.371 33.856ZM539.039 29.728H540.319V34.928C540.319 36.496 541.023 37.088 542.174 37.088C543.407 37.088 544.543 36.128 544.543 33.856V29.728H545.823V38H544.543V36.432C544.111 37.376 543.359 38.16 542.031 38.16C539.983 38.16 539.039 36.896 539.039 35.04V29.728ZM555.179 35.52C554.731 37.184 553.515 38.16 551.563 38.16C549.003 38.16 547.387 36.304 547.387 33.872C547.387 31.44 549.003 29.568 551.563 29.568C553.595 29.568 554.763 30.672 555.131 32.144H553.835C553.515 31.328 552.859 30.608 551.531 30.608C549.787 30.608 548.667 32.032 548.667 33.872C548.667 35.696 549.787 37.104 551.531 37.104C552.747 37.104 553.515 36.544 553.883 35.52H555.179ZM558.405 35.856C558.405 36.56 558.789 36.944 559.429 36.944H560.021V38H559.333C557.813 38 557.157 37.136 557.157 35.92V30.784H555.909V29.728H557.157V27.776L558.405 27.2V29.728H559.989V30.784H558.405V35.856ZM566.398 26.576V38H565.118V26.576H566.398ZM568.493 32.208C568.686 31.008 569.694 29.552 571.79 29.552C574.654 29.552 575.054 31.344 575.054 32.624V36.304C575.054 36.928 575.118 37.568 575.182 38H573.822C573.79 37.584 573.79 37.232 573.79 36.768V36.416H573.774C573.534 37.088 572.83 38.176 570.974 38.176C568.99 38.176 568.062 36.944 568.062 35.744C568.062 33.6 570.67 33.392 572.078 33.152C573.278 32.944 573.79 32.656 573.79 31.952C573.79 31.12 573.038 30.624 571.822 30.624C570.766 30.624 569.982 31.232 569.774 32.208H568.493ZM569.326 35.744C569.326 36.576 570.062 37.136 571.182 37.136C572.542 37.136 573.806 36.224 573.806 34.16V32.976C573.614 33.52 573.102 33.968 571.39 34.24C570.11 34.464 569.326 34.88 569.326 35.744ZM577.039 29.728H578.319V34.928C578.319 36.496 579.023 37.088 580.174 37.088C581.407 37.088 582.543 36.128 582.543 33.856V29.728H583.823V38H582.543V36.432C582.111 37.376 581.359 38.16 580.031 38.16C577.983 38.16 577.039 36.896 577.039 35.04V29.728ZM585.899 29.728H587.179V31.28C587.611 30.352 588.379 29.568 589.691 29.568C591.739 29.568 592.683 30.832 592.683 32.688V38H591.403V32.8C591.403 31.232 590.699 30.64 589.547 30.64C588.315 30.64 587.179 31.6 587.179 33.872V38H585.899V29.728ZM601.976 35.52C601.528 37.184 600.312 38.16 598.36 38.16C595.8 38.16 594.184 36.304 594.184 33.872C594.184 31.44 595.8 29.568 598.36 29.568C600.392 29.568 601.56 30.672 601.928 32.144H600.632C600.312 31.328 599.656 30.608 598.328 30.608C596.584 30.608 595.464 32.032 595.464 33.872C595.464 35.696 596.584 37.104 598.328 37.104C599.544 37.104 600.312 36.544 600.68 35.52H601.976ZM603.634 26.576H604.914V31.28C605.346 30.352 606.114 29.568 607.426 29.568C609.474 29.568 610.418 30.832 610.418 32.688V38H609.138V32.8C609.138 31.232 608.434 30.64 607.282 30.64C606.05 30.64 604.914 31.6 604.914 33.872V38H603.634V26.576ZM616.617 28.736C616.617 27.616 617.193 26.576 618.617 26.576H619.497V27.648H618.905C618.297 27.648 617.865 27.888 617.865 28.8V29.728H619.273V30.784H617.865V38H616.617V30.784H615.465V29.728H616.617V28.736ZM627.552 35.536C627.072 37.232 625.728 38.16 623.888 38.16C621.408 38.16 619.856 36.352 619.856 33.84C619.856 31.392 621.472 29.568 623.84 29.568C626.656 29.568 627.584 31.76 627.648 33.904L627.664 34.224H621.088C621.2 36.016 622.288 37.104 623.856 37.104C625.024 37.104 625.968 36.592 626.288 35.536H627.552ZM626.368 33.2C626.224 31.616 625.408 30.608 623.84 30.608C622.288 30.608 621.28 31.664 621.104 33.2H626.368ZM636.49 35.536C636.01 37.232 634.666 38.16 632.826 38.16C630.346 38.16 628.794 36.352 628.794 33.84C628.794 31.392 630.41 29.568 632.778 29.568C635.594 29.568 636.522 31.76 636.586 33.904L636.602 34.224H630.026C630.138 36.016 631.226 37.104 632.794 37.104C633.962 37.104 634.906 36.592 635.226 35.536H636.49ZM635.306 33.2C635.162 31.616 634.346 30.608 632.778 30.608C631.226 30.608 630.218 31.664 630.042 33.2H635.306ZM641.491 29.568C643.011 29.568 644.035 30.528 644.371 31.408H644.387V26.576H645.667V38H644.387V36.336H644.371C644.019 37.232 643.011 38.16 641.491 38.16C639.123 38.16 637.731 36.336 637.731 33.856C637.731 31.36 639.123 29.568 641.491 29.568ZM639.011 33.856C639.011 35.696 639.939 37.072 641.731 37.072C643.603 37.072 644.451 35.488 644.451 33.856C644.451 32.144 643.555 30.64 641.731 30.64C639.971 30.64 639.011 32 639.011 33.856ZM651.919 29.568C654.303 29.568 655.679 31.36 655.679 33.856C655.679 36.336 654.303 38.16 651.919 38.16C650.399 38.16 649.391 37.232 649.039 36.336H649.023V38H647.743V26.576H649.023V31.408H649.039C649.391 30.528 650.399 29.568 651.919 29.568ZM648.975 33.856C648.975 35.488 649.807 37.072 651.695 37.072C653.487 37.072 654.399 35.696 654.399 33.856C654.399 32 653.439 30.64 651.695 30.64C649.855 30.64 648.975 32.144 648.975 33.856ZM657.259 32.208C657.451 31.008 658.459 29.552 660.555 29.552C663.419 29.552 663.819 31.344 663.819 32.624V36.304C663.819 36.928 663.883 37.568 663.947 38H662.587C662.555 37.584 662.555 37.232 662.555 36.768V36.416H662.539C662.299 37.088 661.595 38.176 659.739 38.176C657.755 38.176 656.827 36.944 656.827 35.744C656.827 33.6 659.435 33.392 660.843 33.152C662.043 32.944 662.555 32.656 662.555 31.952C662.555 31.12 661.803 30.624 660.587 30.624C659.531 30.624 658.747 31.232 658.539 32.208H657.259ZM658.091 35.744C658.091 36.576 658.827 37.136 659.947 37.136C661.307 37.136 662.571 36.224 662.571 34.16V32.976C662.379 33.52 661.867 33.968 660.155 34.24C658.875 34.464 658.091 34.88 658.091 35.744ZM673.148 35.52C672.7 37.184 671.484 38.16 669.532 38.16C666.972 38.16 665.356 36.304 665.356 33.872C665.356 31.44 666.972 29.568 669.532 29.568C671.564 29.568 672.732 30.672 673.1 32.144H671.804C671.484 31.328 670.828 30.608 669.5 30.608C667.756 30.608 666.636 32.032 666.636 33.872C666.636 35.696 667.756 37.104 669.5 37.104C670.716 37.104 671.484 36.544 671.852 35.52H673.148ZM674.806 38V26.576H676.086V33.456L679.798 29.728H681.366L677.878 33.216L681.494 38H679.894L676.998 34.096L676.086 34.96V38H674.806Z" fill="#374151"/>
<path fill-rule="evenodd" clip-rule="evenodd" d="M687.2 30.6997C687.466 30.4334 687.898 30.4334 688.164 30.6997L691.318 33.8539L694.472 30.6997C694.739 30.4334 695.17 30.4334 695.437 30.6997C695.703 30.966 695.703 31.3977 695.437 31.6639L691.8 35.3003C691.534 35.5666 691.102 35.5666 690.836 35.3003L687.2 31.6639C686.933 31.3977 686.933 30.966 687.2 30.6997Z" fill="#878E99"/>
</g>
<defs>
<filter id="filter0_d_2092_558" x="259" y="183" width="680" height="322" filterUnits="userSpaceOnUse" color-interpolation-filters="sRGB">
<feFlood flood-opacity="0" result="BackgroundImageFix"/>
<feColorMatrix in="SourceAlpha" type="matrix" values="0 0 0 0 0 0 0 0 0 0 0 0 0 0 0 0 0 0 127 0" result="hardAlpha"/>
<feOffset dy="1"/>
<feGaussianBlur stdDeviation="2"/>
<feComposite in2="hardAlpha" operator="out"/>
<feColorMatrix type="matrix" values="0 0 0 0 0 0 0 0 0 0 0 0 0 0 0 0 0 0 0.15 0"/>
<feBlend mode="normal" in2="BackgroundImageFix" result="effect1_dropShadow_2092_558"/>
<feBlend mode="normal" in="SourceGraphic" in2="effect1_dropShadow_2092_558" result="shape"/>
</filter>
<filter id="filter1_d_2092_558" x="259" y="529" width="680" height="200" filterUnits="userSpaceOnUse" color-interpolation-filters="sRGB">
<feFlood flood-opacity="0" result="BackgroundImageFix"/>
<feColorMatrix in="SourceAlpha" type="matrix" values="0 0 0 0 0 0 0 0 0 0 0 0 0 0 0 0 0 0 127 0" result="hardAlpha"/>
<feOffset dy="1"/>
<feGaussianBlur stdDeviation="2"/>
<feComposite in2="hardAlpha" operator="out"/>
<feColorMatrix type="matrix" values="0 0 0 0 0 0 0 0 0 0 0 0 0 0 0 0 0 0 0.15 0"/>
<feBlend mode="normal" in2="BackgroundImageFix" result="effect1_dropShadow_2092_558"/>
<feBlend mode="normal" in="SourceGraphic" in2="effect1_dropShadow_2092_558" result="shape"/>
</filter>
<clipPath id="clip0_2092_558">
<rect width="1200" height="860" fill="white"/>
</clipPath>
<clipPath id="clip1_2092_558">
<rect width="24" height="24" fill="white" transform="translate(959 194)"/>
</clipPath>
<clipPath id="clip2_2092_558">
<rect width="24" height="24" fill="white" transform="translate(959 238)"/>
</clipPath>
<clipPath id="clip3_2092_558">
<rect width="24" height="24" fill="white" transform="translate(959 282)"/>
</clipPath>
</defs>
</svg>
